<?xml version="1.0" standalone="no"?>
 <!DOCTYPE svg PUBLIC "-//W3C//DTD SVG 1.1//EN" 
 "http://www.w3.org/Graphics/SVG/1.1/DTD/svg11.dtd"> 
<svg xmlns="http://www.w3.org/2000/svg" version="1.1" 
    width="29.7002cm" height="21.0007cm" viewBox="0 0 116930 82680 ">
<title>SVG Picture created as FinalProject-F.SilkS.svg date 2017/06/13 03:17:14 </title>
  <desc>Picture generated by PCBNEW </desc>
<g style="fill:#000000; fill-opacity:1;stroke:#000000; stroke-opacity:1;
stroke-linecap:round; stroke-linejoin:round; "
 transform="translate(0 0) scale(1 1)">
</g>
<g style="fill:#000000; fill-opacity:0.0; 
stroke:#000000; stroke-width:-0.000393701; stroke-opacity:1; 
stroke-linecap:round; stroke-linejoin:round;">
</g>
<g style="fill:#000000; fill-opacity:0.0; 
stroke:#000000; stroke-width:39.3701; stroke-opacity:1; 
stroke-linecap:round; stroke-linejoin:round;">
</g>
<g style="fill:#000000; fill-opacity:0.0; 
stroke:#000000; stroke-width:59.0551; stroke-opacity:1; 
stroke-linecap:round; stroke-linejoin:round;">
<rect x="69685.9" y="65357.2" width="42519.7" height="12598.4" rx="0" />
</g>
<g style="fill:#000000; fill-opacity:0.0; 
stroke:#000000; stroke-width:39.3701; stroke-opacity:1; 
stroke-linecap:round; stroke-linejoin:round;">
</g>
<g style="fill:#000000; fill-opacity:0.0; 
stroke:#000000; stroke-width:59.0551; stroke-opacity:1; 
stroke-linecap:round; stroke-linejoin:round;">
<rect x="3937.01" y="3937.01" width="109056" height="74806" rx="0" />
</g>
<g style="fill:#000000; fill-opacity:0.0; 
stroke:#000000; stroke-width:39.3701; stroke-opacity:1; 
stroke-linecap:round; stroke-linejoin:round;">
</g>
<g style="fill:#000000; fill-opacity:0.0; 
stroke:#000000; stroke-width:59.0551; stroke-opacity:1; 
stroke-linecap:round; stroke-linejoin:round;">
<rect x="4724.41" y="4724.41" width="107481" height="73231.2" rx="0" />
</g>
<g style="fill:#000000; fill-opacity:0.0; 
stroke:#000000; stroke-width:39.3701; stroke-opacity:1; 
stroke-linecap:round; stroke-linejoin:round;">
</g>
<g style="fill:#000000; fill-opacity:0.0; 
stroke:#000000; stroke-width:59.0551; stroke-opacity:1; 
stroke-linecap:round; stroke-linejoin:round;">
<path d="M23622 4724
L23622 3937
" />
</g>
<g style="fill:#000000; fill-opacity:0.0; 
stroke:#000000; stroke-width:39.3701; stroke-opacity:1; 
stroke-linecap:round; stroke-linejoin:round;">
</g>
<g style="fill:#000000; fill-opacity:0.0; 
stroke:#000000; stroke-width:59.0551; stroke-opacity:1; 
stroke-linecap:round; stroke-linejoin:round;">
<path d="M43307 4724
L43307 3937
" />
</g>
<g style="fill:#000000; fill-opacity:0.0; 
stroke:#000000; stroke-width:39.3701; stroke-opacity:1; 
stroke-linecap:round; stroke-linejoin:round;">
</g>
<g style="fill:#000000; fill-opacity:0.0; 
stroke:#000000; stroke-width:59.0551; stroke-opacity:1; 
stroke-linecap:round; stroke-linejoin:round;">
<path d="M62992 4724
L62992 3937
" />
</g>
<g style="fill:#000000; fill-opacity:0.0; 
stroke:#000000; stroke-width:39.3701; stroke-opacity:1; 
stroke-linecap:round; stroke-linejoin:round;">
</g>
<g style="fill:#000000; fill-opacity:0.0; 
stroke:#000000; stroke-width:59.0551; stroke-opacity:1; 
stroke-linecap:round; stroke-linejoin:round;">
<path d="M82677 4724
L82677 3937
" />
</g>
<g style="fill:#000000; fill-opacity:0.0; 
stroke:#000000; stroke-width:39.3701; stroke-opacity:1; 
stroke-linecap:round; stroke-linejoin:round;">
</g>
<g style="fill:#000000; fill-opacity:0.0; 
stroke:#000000; stroke-width:59.0551; stroke-opacity:1; 
stroke-linecap:round; stroke-linejoin:round;">
<path d="M102362 4724
L102362 3937
" />
</g>
<g style="fill:#000000; fill-opacity:0.0; 
stroke:#000000; stroke-width:39.3701; stroke-opacity:1; 
stroke-linecap:round; stroke-linejoin:round;">
</g>
<g style="fill:#000000; fill-opacity:0.0; 
stroke:#000000; stroke-width:59.0551; stroke-opacity:1; 
stroke-linecap:round; stroke-linejoin:round;">
<path d="M14169 4562
L13877 4562
" />
<path d="M14023 4562
L14023 4050
L13974 4123
L13925 4172
L13877 4196
" />
</g>
<g style="fill:#000000; fill-opacity:0.0; 
stroke:#000000; stroke-width:39.3701; stroke-opacity:1; 
stroke-linecap:round; stroke-linejoin:round;">
</g>
<g style="fill:#000000; fill-opacity:0.0; 
stroke:#000000; stroke-width:59.0551; stroke-opacity:1; 
stroke-linecap:round; stroke-linejoin:round;">
<path d="M33562 4099
L33586 4074
L33635 4050
L33757 4050
L33805 4074
L33830 4099
L33854 4147
L33854 4196
L33830 4269
L33537 4562
L33854 4562
" />
</g>
<g style="fill:#000000; fill-opacity:0.0; 
stroke:#000000; stroke-width:39.3701; stroke-opacity:1; 
stroke-linecap:round; stroke-linejoin:round;">
</g>
<g style="fill:#000000; fill-opacity:0.0; 
stroke:#000000; stroke-width:59.0551; stroke-opacity:1; 
stroke-linecap:round; stroke-linejoin:round;">
<path d="M53222 4050
L53539 4050
L53368 4245
L53442 4245
L53490 4269
L53515 4294
L53539 4342
L53539 4464
L53515 4513
L53490 4537
L53442 4562
L53295 4562
L53247 4537
L53222 4513
" />
</g>
<g style="fill:#000000; fill-opacity:0.0; 
stroke:#000000; stroke-width:39.3701; stroke-opacity:1; 
stroke-linecap:round; stroke-linejoin:round;">
</g>
<g style="fill:#000000; fill-opacity:0.0; 
stroke:#000000; stroke-width:59.0551; stroke-opacity:1; 
stroke-linecap:round; stroke-linejoin:round;">
<path d="M73175 4221
L73175 4562
" />
<path d="M73053 4026
L72932 4391
L73248 4391
" />
</g>
<g style="fill:#000000; fill-opacity:0.0; 
stroke:#000000; stroke-width:39.3701; stroke-opacity:1; 
stroke-linecap:round; stroke-linejoin:round;">
</g>
<g style="fill:#000000; fill-opacity:0.0; 
stroke:#000000; stroke-width:59.0551; stroke-opacity:1; 
stroke-linecap:round; stroke-linejoin:round;">
<path d="M92885 4050
L92641 4050
L92617 4294
L92641 4269
L92690 4245
L92812 4245
L92860 4269
L92885 4294
L92909 4342
L92909 4464
L92885 4513
L92860 4537
L92812 4562
L92690 4562
L92641 4537
L92617 4513
" />
</g>
<g style="fill:#000000; fill-opacity:0.0; 
stroke:#000000; stroke-width:39.3701; stroke-opacity:1; 
stroke-linecap:round; stroke-linejoin:round;">
</g>
<g style="fill:#000000; fill-opacity:0.0; 
stroke:#000000; stroke-width:59.0551; stroke-opacity:1; 
stroke-linecap:round; stroke-linejoin:round;">
<path d="M112545 4050
L112448 4050
L112399 4074
L112375 4099
L112326 4172
L112302 4269
L112302 4464
L112326 4513
L112350 4537
L112399 4562
L112497 4562
L112545 4537
L112570 4513
L112594 4464
L112594 4342
L112570 4294
L112545 4269
L112497 4245
L112399 4245
L112350 4269
L112326 4294
L112302 4342
" />
</g>
<g style="fill:#000000; fill-opacity:0.0; 
stroke:#000000; stroke-width:39.3701; stroke-opacity:1; 
stroke-linecap:round; stroke-linejoin:round;">
</g>
<g style="fill:#000000; fill-opacity:0.0; 
stroke:#000000; stroke-width:59.0551; stroke-opacity:1; 
stroke-linecap:round; stroke-linejoin:round;">
<path d="M23622 77955
L23622 78742
" />
</g>
<g style="fill:#000000; fill-opacity:0.0; 
stroke:#000000; stroke-width:39.3701; stroke-opacity:1; 
stroke-linecap:round; stroke-linejoin:round;">
</g>
<g style="fill:#000000; fill-opacity:0.0; 
stroke:#000000; stroke-width:59.0551; stroke-opacity:1; 
stroke-linecap:round; stroke-linejoin:round;">
<path d="M43307 77955
L43307 78742
" />
</g>
<g style="fill:#000000; fill-opacity:0.0; 
stroke:#000000; stroke-width:39.3701; stroke-opacity:1; 
stroke-linecap:round; stroke-linejoin:round;">
</g>
<g style="fill:#000000; fill-opacity:0.0; 
stroke:#000000; stroke-width:59.0551; stroke-opacity:1; 
stroke-linecap:round; stroke-linejoin:round;">
<path d="M62992 77955
L62992 78742
" />
</g>
<g style="fill:#000000; fill-opacity:0.0; 
stroke:#000000; stroke-width:39.3701; stroke-opacity:1; 
stroke-linecap:round; stroke-linejoin:round;">
</g>
<g style="fill:#000000; fill-opacity:0.0; 
stroke:#000000; stroke-width:59.0551; stroke-opacity:1; 
stroke-linecap:round; stroke-linejoin:round;">
<path d="M82677 77955
L82677 78742
" />
</g>
<g style="fill:#000000; fill-opacity:0.0; 
stroke:#000000; stroke-width:39.3701; stroke-opacity:1; 
stroke-linecap:round; stroke-linejoin:round;">
</g>
<g style="fill:#000000; fill-opacity:0.0; 
stroke:#000000; stroke-width:59.0551; stroke-opacity:1; 
stroke-linecap:round; stroke-linejoin:round;">
<path d="M102362 77955
L102362 78742
" />
</g>
<g style="fill:#000000; fill-opacity:0.0; 
stroke:#000000; stroke-width:39.3701; stroke-opacity:1; 
stroke-linecap:round; stroke-linejoin:round;">
</g>
<g style="fill:#000000; fill-opacity:0.0; 
stroke:#000000; stroke-width:59.0551; stroke-opacity:1; 
stroke-linecap:round; stroke-linejoin:round;">
<path d="M14169 78580
L13877 78580
" />
<path d="M14023 78580
L14023 78069
L13974 78142
L13925 78190
L13877 78215
" />
</g>
<g style="fill:#000000; fill-opacity:0.0; 
stroke:#000000; stroke-width:39.3701; stroke-opacity:1; 
stroke-linecap:round; stroke-linejoin:round;">
</g>
<g style="fill:#000000; fill-opacity:0.0; 
stroke:#000000; stroke-width:59.0551; stroke-opacity:1; 
stroke-linecap:round; stroke-linejoin:round;">
<path d="M33562 78117
L33586 78093
L33635 78069
L33757 78069
L33805 78093
L33830 78117
L33854 78166
L33854 78215
L33830 78288
L33537 78580
L33854 78580
" />
</g>
<g style="fill:#000000; fill-opacity:0.0; 
stroke:#000000; stroke-width:39.3701; stroke-opacity:1; 
stroke-linecap:round; stroke-linejoin:round;">
</g>
<g style="fill:#000000; fill-opacity:0.0; 
stroke:#000000; stroke-width:59.0551; stroke-opacity:1; 
stroke-linecap:round; stroke-linejoin:round;">
<path d="M53222 78069
L53539 78069
L53368 78263
L53442 78263
L53490 78288
L53515 78312
L53539 78361
L53539 78483
L53515 78532
L53490 78556
L53442 78580
L53295 78580
L53247 78556
L53222 78532
" />
</g>
<g style="fill:#000000; fill-opacity:0.0; 
stroke:#000000; stroke-width:39.3701; stroke-opacity:1; 
stroke-linecap:round; stroke-linejoin:round;">
</g>
<g style="fill:#000000; fill-opacity:0.0; 
stroke:#000000; stroke-width:59.0551; stroke-opacity:1; 
stroke-linecap:round; stroke-linejoin:round;">
<path d="M73175 78239
L73175 78580
" />
<path d="M73053 78044
L72932 78410
L73248 78410
" />
</g>
<g style="fill:#000000; fill-opacity:0.0; 
stroke:#000000; stroke-width:39.3701; stroke-opacity:1; 
stroke-linecap:round; stroke-linejoin:round;">
</g>
<g style="fill:#000000; fill-opacity:0.0; 
stroke:#000000; stroke-width:59.0551; stroke-opacity:1; 
stroke-linecap:round; stroke-linejoin:round;">
<path d="M92885 78069
L92641 78069
L92617 78312
L92641 78288
L92690 78263
L92812 78263
L92860 78288
L92885 78312
L92909 78361
L92909 78483
L92885 78532
L92860 78556
L92812 78580
L92690 78580
L92641 78556
L92617 78532
" />
</g>
<g style="fill:#000000; fill-opacity:0.0; 
stroke:#000000; stroke-width:39.3701; stroke-opacity:1; 
stroke-linecap:round; stroke-linejoin:round;">
</g>
<g style="fill:#000000; fill-opacity:0.0; 
stroke:#000000; stroke-width:59.0551; stroke-opacity:1; 
stroke-linecap:round; stroke-linejoin:round;">
<path d="M112545 78069
L112448 78069
L112399 78093
L112375 78117
L112326 78190
L112302 78288
L112302 78483
L112326 78532
L112350 78556
L112399 78580
L112497 78580
L112545 78556
L112570 78532
L112594 78483
L112594 78361
L112570 78312
L112545 78288
L112497 78263
L112399 78263
L112350 78288
L112326 78312
L112302 78361
" />
</g>
<g style="fill:#000000; fill-opacity:0.0; 
stroke:#000000; stroke-width:39.3701; stroke-opacity:1; 
stroke-linecap:round; stroke-linejoin:round;">
</g>
<g style="fill:#000000; fill-opacity:0.0; 
stroke:#000000; stroke-width:59.0551; stroke-opacity:1; 
stroke-linecap:round; stroke-linejoin:round;">
<path d="M3937 23622
L4724 23622
" />
</g>
<g style="fill:#000000; fill-opacity:0.0; 
stroke:#000000; stroke-width:39.3701; stroke-opacity:1; 
stroke-linecap:round; stroke-linejoin:round;">
</g>
<g style="fill:#000000; fill-opacity:0.0; 
stroke:#000000; stroke-width:59.0551; stroke-opacity:1; 
stroke-linecap:round; stroke-linejoin:round;">
<path d="M3937 43307
L4724 43307
" />
</g>
<g style="fill:#000000; fill-opacity:0.0; 
stroke:#000000; stroke-width:39.3701; stroke-opacity:1; 
stroke-linecap:round; stroke-linejoin:round;">
</g>
<g style="fill:#000000; fill-opacity:0.0; 
stroke:#000000; stroke-width:59.0551; stroke-opacity:1; 
stroke-linecap:round; stroke-linejoin:round;">
<path d="M3937 62992
L4724 62992
" />
</g>
<g style="fill:#000000; fill-opacity:0.0; 
stroke:#000000; stroke-width:39.3701; stroke-opacity:1; 
stroke-linecap:round; stroke-linejoin:round;">
</g>
<g style="fill:#000000; fill-opacity:0.0; 
stroke:#000000; stroke-width:59.0551; stroke-opacity:1; 
stroke-linecap:round; stroke-linejoin:round;">
<path d="M4208 13864
L4452 13864
" />
<path d="M4160 14011
L4330 13499
L4501 14011
" />
</g>
<g style="fill:#000000; fill-opacity:0.0; 
stroke:#000000; stroke-width:39.3701; stroke-opacity:1; 
stroke-linecap:round; stroke-linejoin:round;">
</g>
<g style="fill:#000000; fill-opacity:0.0; 
stroke:#000000; stroke-width:59.0551; stroke-opacity:1; 
stroke-linecap:round; stroke-linejoin:round;">
<path d="M4367 33428
L4440 33452
L4464 33476
L4489 33525
L4489 33598
L4464 33647
L4440 33671
L4391 33696
L4196 33696
L4196 33184
L4367 33184
L4416 33208
L4440 33233
L4464 33281
L4464 33330
L4440 33379
L4416 33403
L4367 33428
L4196 33428
" />
</g>
<g style="fill:#000000; fill-opacity:0.0; 
stroke:#000000; stroke-width:39.3701; stroke-opacity:1; 
stroke-linecap:round; stroke-linejoin:round;">
</g>
<g style="fill:#000000; fill-opacity:0.0; 
stroke:#000000; stroke-width:59.0551; stroke-opacity:1; 
stroke-linecap:round; stroke-linejoin:round;">
<path d="M4489 53332
L4464 53356
L4391 53381
L4342 53381
L4269 53356
L4221 53308
L4196 53259
L4172 53161
L4172 53088
L4196 52991
L4221 52942
L4269 52893
L4342 52869
L4391 52869
L4464 52893
L4489 52918
" />
</g>
<g style="fill:#000000; fill-opacity:0.0; 
stroke:#000000; stroke-width:39.3701; stroke-opacity:1; 
stroke-linecap:round; stroke-linejoin:round;">
</g>
<g style="fill:#000000; fill-opacity:0.0; 
stroke:#000000; stroke-width:59.0551; stroke-opacity:1; 
stroke-linecap:round; stroke-linejoin:round;">
<path d="M4196 73066
L4196 72554
L4318 72554
L4391 72578
L4440 72627
L4464 72676
L4489 72773
L4489 72846
L4464 72944
L4440 72993
L4391 73041
L4318 73066
L4196 73066
" />
</g>
<g style="fill:#000000; fill-opacity:0.0; 
stroke:#000000; stroke-width:39.3701; stroke-opacity:1; 
stroke-linecap:round; stroke-linejoin:round;">
</g>
<g style="fill:#000000; fill-opacity:0.0; 
stroke:#000000; stroke-width:59.0551; stroke-opacity:1; 
stroke-linecap:round; stroke-linejoin:round;">
<path d="M112992 23622
L112205 23622
" />
</g>
<g style="fill:#000000; fill-opacity:0.0; 
stroke:#000000; stroke-width:39.3701; stroke-opacity:1; 
stroke-linecap:round; stroke-linejoin:round;">
</g>
<g style="fill:#000000; fill-opacity:0.0; 
stroke:#000000; stroke-width:59.0551; stroke-opacity:1; 
stroke-linecap:round; stroke-linejoin:round;">
<path d="M112992 43307
L112205 43307
" />
</g>
<g style="fill:#000000; fill-opacity:0.0; 
stroke:#000000; stroke-width:39.3701; stroke-opacity:1; 
stroke-linecap:round; stroke-linejoin:round;">
</g>
<g style="fill:#000000; fill-opacity:0.0; 
stroke:#000000; stroke-width:59.0551; stroke-opacity:1; 
stroke-linecap:round; stroke-linejoin:round;">
<path d="M112992 62992
L112205 62992
" />
</g>
<g style="fill:#000000; fill-opacity:0.0; 
stroke:#000000; stroke-width:39.3701; stroke-opacity:1; 
stroke-linecap:round; stroke-linejoin:round;">
</g>
<g style="fill:#000000; fill-opacity:0.0; 
stroke:#000000; stroke-width:59.0551; stroke-opacity:1; 
stroke-linecap:round; stroke-linejoin:round;">
<path d="M112477 13864
L112721 13864
" />
<path d="M112428 14011
L112599 13499
L112769 14011
" />
</g>
<g style="fill:#000000; fill-opacity:0.0; 
stroke:#000000; stroke-width:39.3701; stroke-opacity:1; 
stroke-linecap:round; stroke-linejoin:round;">
</g>
<g style="fill:#000000; fill-opacity:0.0; 
stroke:#000000; stroke-width:59.0551; stroke-opacity:1; 
stroke-linecap:round; stroke-linejoin:round;">
<path d="M112635 33428
L112708 33452
L112733 33476
L112757 33525
L112757 33598
L112733 33647
L112708 33671
L112660 33696
L112465 33696
L112465 33184
L112635 33184
L112684 33208
L112708 33233
L112733 33281
L112733 33330
L112708 33379
L112684 33403
L112635 33428
L112465 33428
" />
</g>
<g style="fill:#000000; fill-opacity:0.0; 
stroke:#000000; stroke-width:39.3701; stroke-opacity:1; 
stroke-linecap:round; stroke-linejoin:round;">
</g>
<g style="fill:#000000; fill-opacity:0.0; 
stroke:#000000; stroke-width:59.0551; stroke-opacity:1; 
stroke-linecap:round; stroke-linejoin:round;">
<path d="M112757 53332
L112733 53356
L112660 53381
L112611 53381
L112538 53356
L112489 53308
L112465 53259
L112440 53161
L112440 53088
L112465 52991
L112489 52942
L112538 52893
L112611 52869
L112660 52869
L112733 52893
L112757 52918
" />
</g>
<g style="fill:#000000; fill-opacity:0.0; 
stroke:#000000; stroke-width:39.3701; stroke-opacity:1; 
stroke-linecap:round; stroke-linejoin:round;">
</g>
<g style="fill:#000000; fill-opacity:0.0; 
stroke:#000000; stroke-width:59.0551; stroke-opacity:1; 
stroke-linecap:round; stroke-linejoin:round;">
<path d="M112465 73066
L112465 72554
L112587 72554
L112660 72578
L112708 72627
L112733 72676
L112757 72773
L112757 72846
L112733 72944
L112708 72993
L112660 73041
L112587 73066
L112465 73066
" />
</g>
<g style="fill:#000000; fill-opacity:0.0; 
stroke:#000000; stroke-width:39.3701; stroke-opacity:1; 
stroke-linecap:round; stroke-linejoin:round;">
</g>
<g style="fill:#000000; fill-opacity:0.0; 
stroke:#000000; stroke-width:59.0551; stroke-opacity:1; 
stroke-linecap:round; stroke-linejoin:round;">
<path d="M78881 76293
L78881 75703
L79022 75703
L79106 75731
L79162 75787
L79190 75843
L79219 75956
L79219 76040
L79190 76153
L79162 76209
L79106 76265
L79022 76293
L78881 76293
" />
<path d="M79725 76293
L79725 75984
L79697 75928
L79640 75899
L79528 75899
L79472 75928
" />
<path d="M79725 76265
L79669 76293
L79528 76293
L79472 76265
L79444 76209
L79444 76153
L79472 76096
L79528 76068
L79669 76068
L79725 76040
" />
<path d="M79922 75899
L80147 75899
" />
<path d="M80006 75703
L80006 76209
L80034 76265
L80090 76293
L80147 76293
" />
<path d="M80568 76265
L80512 76293
L80400 76293
L80343 76265
L80315 76209
L80315 75984
L80343 75928
L80400 75899
L80512 75899
L80568 75928
L80597 75984
L80597 76040
L80315 76096
" />
<path d="M80850 76237
L80878 76265
L80850 76293
L80822 76265
L80850 76237
L80850 76293
" />
<path d="M80850 75928
L80878 75956
L80850 75984
L80822 75956
L80850 75928
L80850 75984
" />
<path d="M81553 75759
L81581 75731
L81637 75703
L81778 75703
L81834 75731
L81862 75759
L81890 75815
L81890 75871
L81862 75956
L81525 76293
L81890 76293
" />
<path d="M82256 75703
L82312 75703
L82368 75731
L82396 75759
L82424 75815
L82453 75928
L82453 76068
L82424 76181
L82396 76237
L82368 76265
L82312 76293
L82256 76293
L82199 76265
L82171 76237
L82143 76181
L82115 76068
L82115 75928
L82143 75815
L82171 75759
L82199 75731
L82256 75703
" />
<path d="M83015 76293
L82678 76293
" />
<path d="M82846 76293
L82846 75703
L82790 75787
L82734 75843
L82678 75871
" />
<path d="M83212 75703
L83606 75703
L83352 76293
" />
<path d="M83831 76068
L84280 76068
" />
<path d="M84674 75703
L84730 75703
L84787 75731
L84815 75759
L84843 75815
L84871 75928
L84871 76068
L84843 76181
L84815 76237
L84787 76265
L84730 76293
L84674 76293
L84618 76265
L84590 76237
L84562 76181
L84534 76068
L84534 75928
L84562 75815
L84590 75759
L84618 75731
L84674 75703
" />
<path d="M85377 75703
L85265 75703
L85208 75731
L85180 75759
L85124 75843
L85096 75956
L85096 76181
L85124 76237
L85152 76265
L85208 76293
L85321 76293
L85377 76265
L85405 76237
L85433 76181
L85433 76040
L85405 75984
L85377 75956
L85321 75928
L85208 75928
L85152 75956
L85124 75984
L85096 76040
" />
<path d="M85687 76068
L86136 76068
" />
<path d="M86727 76293
L86390 76293
" />
<path d="M86558 76293
L86558 75703
L86502 75787
L86446 75843
L86390 75871
" />
<path d="M86952 75759
L86980 75731
L87036 75703
L87177 75703
L87233 75731
L87261 75759
L87289 75815
L87289 75871
L87261 75956
L86924 76293
L87289 76293
" />
</g>
<g style="fill:#000000; fill-opacity:0.0; 
stroke:#000000; stroke-width:39.3701; stroke-opacity:1; 
stroke-linecap:round; stroke-linejoin:round;">
</g>
<g style="fill:#000000; fill-opacity:0.0; 
stroke:#000000; stroke-width:59.0551; stroke-opacity:1; 
stroke-linecap:round; stroke-linejoin:round;">
<path d="M69685 76577
L112205 76577
" />
</g>
<g style="fill:#000000; fill-opacity:0.0; 
stroke:#000000; stroke-width:39.3701; stroke-opacity:1; 
stroke-linecap:round; stroke-linejoin:round;">
</g>
<g style="fill:#000000; fill-opacity:0.0; 
stroke:#000000; stroke-width:59.0551; stroke-opacity:1; 
stroke-linecap:round; stroke-linejoin:round;">
<path d="M70220 77395
L70220 76805
" />
<path d="M70557 77395
L70304 77058
" />
<path d="M70557 76805
L70220 77142
" />
<path d="M70810 77395
L70810 77002
" />
<path d="M70810 76805
L70782 76833
L70810 76861
L70838 76833
L70810 76805
L70810 76861
" />
<path d="M71429 77339
L71401 77367
L71316 77395
L71260 77395
L71176 77367
L71120 77311
L71091 77255
L71063 77142
L71063 77058
L71091 76946
L71120 76889
L71176 76833
L71260 76805
L71316 76805
L71401 76833
L71429 76861
" />
<path d="M71935 77395
L71935 77086
L71907 77030
L71851 77002
L71738 77002
L71682 77030
" />
<path d="M71935 77367
L71879 77395
L71738 77395
L71682 77367
L71654 77311
L71654 77255
L71682 77199
L71738 77171
L71879 77171
L71935 77142
" />
<path d="M72469 77395
L72469 76805
" />
<path d="M72469 77367
L72413 77395
L72301 77395
L72244 77367
L72216 77339
L72188 77283
L72188 77114
L72216 77058
L72244 77030
L72301 77002
L72413 77002
L72469 77030
" />
<path d="M73201 77086
L73397 77086
" />
<path d="M73482 77395
L73201 77395
L73201 76805
L73482 76805
" />
<path d="M73735 77339
L73763 77367
L73735 77395
L73707 77367
L73735 77339
L73735 77395
" />
<path d="M74016 77395
L74016 76805
L74157 76805
L74241 76833
L74297 76889
L74325 76946
L74354 77058
L74354 77142
L74325 77255
L74297 77311
L74241 77367
L74157 77395
L74016 77395
" />
<path d="M74607 77339
L74635 77367
L74607 77395
L74579 77367
L74607 77339
L74607 77395
" />
<path d="M74860 77227
L75141 77227
" />
<path d="M74804 77395
L75000 76805
L75197 77395
" />
<path d="M75394 77339
L75422 77367
L75394 77395
L75366 77367
L75394 77339
L75394 77395
" />
<path d="M76575 77395
L76575 76805
" />
<path d="M76631 77171
L76800 77395
" />
<path d="M76800 77002
L76575 77227
" />
<path d="M77053 77395
L77053 77002
" />
<path d="M77053 76805
L77025 76833
L77053 76861
L77081 76833
L77053 76805
L77053 76861
" />
<path d="M77588 77367
L77531 77395
L77419 77395
L77363 77367
L77334 77339
L77306 77283
L77306 77114
L77334 77058
L77363 77030
L77419 77002
L77531 77002
L77588 77030
" />
<path d="M78094 77395
L78094 77086
L78066 77030
L78009 77002
L77897 77002
L77841 77030
" />
<path d="M78094 77367
L78037 77395
L77897 77395
L77841 77367
L77813 77311
L77813 77255
L77841 77199
L77897 77171
L78037 77171
L78094 77142
" />
<path d="M78628 77395
L78628 76805
" />
<path d="M78628 77367
L78572 77395
L78459 77395
L78403 77367
L78375 77339
L78347 77283
L78347 77114
L78375 77058
L78403 77030
L78459 77002
L78572 77002
L78628 77030
" />
<path d="M79612 77002
L79612 77395
" />
<path d="M79472 76777
L79331 77199
L79697 77199
" />
<path d="M79922 77339
L79950 77367
L79922 77395
L79894 77367
L79922 77339
L79922 77395
" />
<path d="M80315 76805
L80372 76805
L80428 76833
L80456 76861
L80484 76917
L80512 77030
L80512 77171
L80484 77283
L80456 77339
L80428 77367
L80372 77395
L80315 77395
L80259 77367
L80231 77339
L80203 77283
L80175 77171
L80175 77030
L80203 76917
L80231 76861
L80259 76833
L80315 76805
" />
<path d="M80765 77339
L80793 77367
L80765 77395
L80737 77367
L80765 77339
L80765 77395
" />
<path d="M81328 76805
L81046 76805
L81018 77086
L81046 77058
L81103 77030
L81243 77030
L81300 77058
L81328 77086
L81356 77142
L81356 77283
L81328 77339
L81300 77367
L81243 77395
L81103 77395
L81046 77367
L81018 77339
" />
</g>
<g style="fill:#000000; fill-opacity:0.0; 
stroke:#000000; stroke-width:39.3701; stroke-opacity:1; 
stroke-linecap:round; stroke-linejoin:round;">
</g>
<g style="fill:#000000; fill-opacity:0.0; 
stroke:#000000; stroke-width:59.0551; stroke-opacity:1; 
stroke-linecap:round; stroke-linejoin:round;">
<path d="M69685 75396
L112205 75396
" />
</g>
<g style="fill:#000000; fill-opacity:0.0; 
stroke:#000000; stroke-width:39.3701; stroke-opacity:1; 
stroke-linecap:round; stroke-linejoin:round;">
</g>
<g style="fill:#000000; fill-opacity:0.0; 
stroke:#000000; stroke-width:118.11; stroke-opacity:1; 
stroke-linecap:round; stroke-linejoin:round;">
<path d="M104022 76293
L103825 76012
" />
<path d="M103684 76293
L103684 75703
L103909 75703
L103965 75731
L103994 75759
L104022 75815
L104022 75899
L103994 75956
L103965 75984
L103909 76012
L103684 76012
" />
<path d="M104500 76265
L104444 76293
L104331 76293
L104275 76265
L104247 76209
L104247 75984
L104275 75928
L104331 75899
L104444 75899
L104500 75928
L104528 75984
L104528 76040
L104247 76096
" />
<path d="M104725 75899
L104865 76293
L105006 75899
" />
<path d="M105231 76237
L105259 76265
L105231 76293
L105203 76265
L105231 76237
L105231 76293
" />
<path d="M105231 75928
L105259 75956
L105231 75984
L105203 75956
L105231 75928
L105231 75984
" />
<path d="M105878 75703
L106075 76293
L106271 75703
" />
<path d="M106778 76293
L106440 76293
" />
<path d="M106609 76293
L106609 75703
L106553 75787
L106496 75843
L106440 75871
" />
<path d="M107031 76237
L107059 76265
L107031 76293
L107003 76265
L107031 76237
L107031 76293
" />
<path d="M107424 75703
L107481 75703
L107537 75731
L107565 75759
L107593 75815
L107621 75928
L107621 76068
L107593 76181
L107565 76237
L107537 76265
L107481 76293
L107424 76293
L107368 76265
L107340 76237
L107312 76181
L107284 76068
L107284 75928
L107312 75815
L107340 75759
L107368 75731
L107424 75703
" />
</g>
<g style="fill:#000000; fill-opacity:0.0; 
stroke:#000000; stroke-width:39.3701; stroke-opacity:1; 
stroke-linecap:round; stroke-linejoin:round;">
</g>
<g style="fill:#000000; fill-opacity:0.0; 
stroke:#000000; stroke-width:59.0551; stroke-opacity:1; 
stroke-linecap:round; stroke-linejoin:round;">
<path d="M70192 76265
L70276 76293
L70417 76293
L70473 76265
L70501 76237
L70529 76181
L70529 76124
L70501 76068
L70473 76040
L70417 76012
L70304 75984
L70248 75956
L70220 75928
L70192 75871
L70192 75815
L70220 75759
L70248 75731
L70304 75703
L70445 75703
L70529 75731
" />
<path d="M70782 76293
L70782 75899
" />
<path d="M70782 75703
L70754 75731
L70782 75759
L70810 75731
L70782 75703
L70782 75759
" />
<path d="M71007 75899
L71316 75899
L71007 76293
L71316 76293
" />
<path d="M71766 76265
L71710 76293
L71598 76293
L71541 76265
L71513 76209
L71513 75984
L71541 75928
L71598 75899
L71710 75899
L71766 75928
L71795 75984
L71795 76040
L71513 76096
" />
<path d="M72048 76237
L72076 76265
L72048 76293
L72019 76265
L72048 76237
L72048 76293
" />
<path d="M72048 75928
L72076 75956
L72048 75984
L72019 75956
L72048 75928
L72048 75984
" />
<path d="M72751 76124
L73032 76124
" />
<path d="M72694 76293
L72891 75703
L73088 76293
" />
<path d="M73538 75899
L73538 76293
" />
<path d="M73397 75674
L73257 76096
L73622 76096
" />
</g>
<g style="fill:#000000; fill-opacity:0.0; 
stroke:#000000; stroke-width:39.3701; stroke-opacity:1; 
stroke-linecap:round; stroke-linejoin:round;">
</g>
<g style="fill:#000000; fill-opacity:0.0; 
stroke:#000000; stroke-width:59.0551; stroke-opacity:1; 
stroke-linecap:round; stroke-linejoin:round;">
<path d="M103684 77395
L103684 76805
" />
<path d="M104219 77395
L104219 76805
" />
<path d="M104219 77367
L104162 77395
L104050 77395
L103994 77367
L103965 77339
L103937 77283
L103937 77114
L103965 77058
L103994 77030
L104050 77002
L104162 77002
L104219 77030
" />
<path d="M104500 77339
L104528 77367
L104500 77395
L104472 77367
L104500 77339
L104500 77395
" />
<path d="M104500 77030
L104528 77058
L104500 77086
L104472 77058
L104500 77030
L104500 77086
" />
<path d="M105540 77395
L105203 77395
" />
<path d="M105372 77395
L105372 76805
L105315 76889
L105259 76946
L105203 76974
" />
<path d="M106215 76777
L105709 77536
" />
<path d="M106721 77395
L106384 77395
" />
<path d="M106553 77395
L106553 76805
L106496 76889
L106440 76946
L106384 76974
" />
</g>
<g style="fill:#000000; fill-opacity:0.0; 
stroke:#000000; stroke-width:39.3701; stroke-opacity:1; 
stroke-linecap:round; stroke-linejoin:round;">
</g>
<g style="fill:#000000; fill-opacity:0.0; 
stroke:#000000; stroke-width:59.0551; stroke-opacity:1; 
stroke-linecap:round; stroke-linejoin:round;">
<path d="M69685 73821
L112205 73821
" />
</g>
<g style="fill:#000000; fill-opacity:0.0; 
stroke:#000000; stroke-width:39.3701; stroke-opacity:1; 
stroke-linecap:round; stroke-linejoin:round;">
</g>
<g style="fill:#000000; fill-opacity:0.0; 
stroke:#000000; stroke-width:157.48; stroke-opacity:1; 
stroke-linecap:round; stroke-linejoin:round;">
<path d="M70257 74099
L70707 74099
" />
<path d="M70384 74886
L70482 74099
" />
<path d="M70871 74886
L70937 74361
" />
<path d="M70970 74099
L70927 74136
L70960 74174
L71002 74136
L70970 74099
L70960 74174
" />
<path d="M71199 74361
L71499 74361
" />
<path d="M71345 74099
L71260 74774
L71288 74849
L71359 74886
L71434 74886
" />
<path d="M71809 74886
L71738 74849
L71710 74774
L71795 74099
" />
<path d="M72413 74849
L72334 74886
L72184 74886
L72113 74849
L72085 74774
L72123 74474
L72169 74399
L72249 74361
L72399 74361
L72469 74399
L72498 74474
L72488 74549
L72104 74624
" />
<path d="M72793 74811
L72826 74849
L72783 74886
L72751 74849
L72793 74811
L72783 74886
" />
<path d="M72844 74399
L72877 74436
L72835 74474
L72802 74436
L72844 74399
L72835 74474
" />
<path d="M74072 74474
L73810 74474
" />
<path d="M73758 74886
L73857 74099
L74232 74099
" />
<path d="M74433 74886
L74499 74361
" />
<path d="M74532 74099
L74489 74136
L74522 74174
L74564 74136
L74532 74099
L74522 74174
" />
<path d="M74874 74361
L74808 74886
" />
<path d="M74864 74436
L74907 74399
L74986 74361
L75099 74361
L75169 74399
L75197 74474
L75146 74886
" />
<path d="M75858 74886
L75910 74474
L75882 74399
L75811 74361
L75661 74361
L75582 74399
" />
<path d="M75863 74849
L75783 74886
L75596 74886
L75525 74849
L75497 74774
L75507 74699
L75553 74624
L75633 74586
L75821 74586
L75900 74549
" />
<path d="M76346 74886
L76275 74849
L76247 74774
L76331 74099
" />
<path d="M76645 74886
L76744 74099
L77044 74099
L77114 74136
L77147 74174
L77175 74249
L77161 74361
L77114 74436
L77072 74474
L76992 74511
L76692 74511
" />
<path d="M77433 74886
L77498 74361
" />
<path d="M77480 74511
L77527 74436
L77569 74399
L77648 74361
L77723 74361
" />
<path d="M78033 74886
L77962 74849
L77930 74811
L77902 74736
L77930 74511
L77977 74436
L78019 74399
L78098 74361
L78211 74361
L78281 74399
L78314 74436
L78342 74511
L78314 74736
L78267 74811
L78225 74849
L78145 74886
L78033 74886
" />
<path d="M78698 74361
L78614 75036
L78567 75111
L78487 75149
L78450 75149
" />
<path d="M78731 74099
L78689 74136
L78722 74174
L78764 74136
L78731 74099
L78722 74174
" />
<path d="M79312 74849
L79233 74886
L79083 74886
L79012 74849
L78984 74774
L79022 74474
L79069 74399
L79148 74361
L79298 74361
L79369 74399
L79397 74474
L79387 74549
L79003 74624
" />
<path d="M80025 74849
L79945 74886
L79795 74886
L79725 74849
L79692 74811
L79664 74736
L79692 74511
L79739 74436
L79781 74399
L79861 74361
L80011 74361
L80081 74399
" />
<path d="M80311 74361
L80611 74361
" />
<path d="M80456 74099
L80372 74774
L80400 74849
L80470 74886
L80545 74886
" />
<path d="M80807 74886
L80906 74099
L81206 74099
L81276 74136
L81309 74174
L81337 74249
L81323 74361
L81276 74436
L81234 74474
L81154 74511
L80854 74511
" />
<path d="M82054 74811
L82012 74849
L81895 74886
L81820 74886
L81712 74849
L81646 74774
L81618 74699
L81600 74549
L81614 74436
L81670 74286
L81717 74211
L81801 74136
L81918 74099
L81993 74099
L82101 74136
L82134 74174
" />
<path d="M82696 74474
L82804 74511
L82837 74549
L82865 74624
L82851 74736
L82804 74811
L82762 74849
L82682 74886
L82382 74886
L82481 74099
L82743 74099
L82813 74136
L82846 74174
L82874 74249
L82865 74324
L82818 74399
L82776 74436
L82696 74474
L82434 74474
" />
</g>
<g style="fill:#000000; fill-opacity:0.0; 
stroke:#000000; stroke-width:39.3701; stroke-opacity:1; 
stroke-linecap:round; stroke-linejoin:round;">
</g>
<g style="fill:#000000; fill-opacity:0.0; 
stroke:#000000; stroke-width:59.0551; stroke-opacity:1; 
stroke-linecap:round; stroke-linejoin:round;">
<path d="M70417 73070
L70220 73070
" />
<path d="M70220 73380
L70220 72789
L70501 72789
" />
<path d="M70726 73380
L70726 72986
" />
<path d="M70726 72789
L70698 72817
L70726 72845
L70754 72817
L70726 72789
L70726 72845
" />
<path d="M71091 73380
L71035 73352
L71007 73295
L71007 72789
" />
<path d="M71541 73352
L71485 73380
L71373 73380
L71316 73352
L71288 73295
L71288 73070
L71316 73014
L71373 72986
L71485 72986
L71541 73014
L71570 73070
L71570 73127
L71288 73183
" />
<path d="M71823 73323
L71851 73352
L71823 73380
L71795 73352
L71823 73323
L71823 73380
" />
<path d="M71823 73014
L71851 73042
L71823 73070
L71795 73042
L71823 73014
L71823 73070
" />
<path d="M72751 73070
L72554 73070
" />
<path d="M72554 73380
L72554 72789
L72835 72789
" />
<path d="M73060 73380
L73060 72986
" />
<path d="M73060 72789
L73032 72817
L73060 72845
L73088 72817
L73060 72789
L73060 72845
" />
<path d="M73341 72986
L73341 73380
" />
<path d="M73341 73042
L73369 73014
L73426 72986
L73510 72986
L73566 73014
L73594 73070
L73594 73380
" />
<path d="M74129 73380
L74129 73070
L74100 73014
L74044 72986
L73932 72986
L73876 73014
" />
<path d="M74129 73352
L74072 73380
L73932 73380
L73876 73352
L73847 73295
L73847 73239
L73876 73183
L73932 73155
L74072 73155
L74129 73127
" />
<path d="M74494 73380
L74438 73352
L74410 73295
L74410 72789
" />
<path d="M74719 73380
L74719 72789
L74944 72789
L75000 72817
L75028 72845
L75057 72902
L75057 72986
L75028 73042
L75000 73070
L74944 73099
L74719 73099
" />
<path d="M75310 73380
L75310 72986
" />
<path d="M75310 73099
L75338 73042
L75366 73014
L75422 72986
L75478 72986
" />
<path d="M75760 73380
L75703 73352
L75675 73323
L75647 73267
L75647 73099
L75675 73042
L75703 73014
L75760 72986
L75844 72986
L75900 73014
L75928 73042
L75956 73099
L75956 73267
L75928 73323
L75900 73352
L75844 73380
L75760 73380
" />
<path d="M76210 72986
L76210 73492
L76181 73548
L76125 73577
L76097 73577
" />
<path d="M76210 72789
L76181 72817
L76210 72845
L76238 72817
L76210 72789
L76210 72845
" />
<path d="M76716 73352
L76660 73380
L76547 73380
L76491 73352
L76463 73295
L76463 73070
L76491 73014
L76547 72986
L76660 72986
L76716 73014
L76744 73070
L76744 73127
L76463 73183
" />
<path d="M77250 73352
L77194 73380
L77081 73380
L77025 73352
L76997 73323
L76969 73267
L76969 73099
L76997 73042
L77025 73014
L77081 72986
L77194 72986
L77250 73014
" />
<path d="M77419 72986
L77644 72986
" />
<path d="M77503 72789
L77503 73295
L77531 73352
L77588 73380
L77644 73380
" />
<path d="M77841 73323
L77869 73352
L77841 73380
L77813 73352
L77841 73323
L77841 73380
" />
<path d="M78122 73380
L78122 72789
" />
<path d="M78178 73155
L78347 73380
" />
<path d="M78347 72986
L78122 73211
" />
<path d="M78600 73380
L78600 72986
" />
<path d="M78600 72789
L78572 72817
L78600 72845
L78628 72817
L78600 72789
L78600 72845
" />
<path d="M79134 73352
L79078 73380
L78965 73380
L78909 73352
L78881 73323
L78853 73267
L78853 73099
L78881 73042
L78909 73014
L78965 72986
L79078 72986
L79134 73014
" />
<path d="M79640 73380
L79640 73070
L79612 73014
L79556 72986
L79444 72986
L79387 73014
" />
<path d="M79640 73352
L79584 73380
L79444 73380
L79387 73352
L79359 73295
L79359 73239
L79387 73183
L79444 73155
L79584 73155
L79640 73127
" />
<path d="M80175 73380
L80175 72789
" />
<path d="M80175 73352
L80118 73380
L80006 73380
L79950 73352
L79922 73323
L79894 73267
L79894 73099
L79922 73042
L79950 73014
L80006 72986
L80118 72986
L80175 73014
" />
<path d="M80315 73436
L80765 73436
" />
<path d="M80906 72986
L80906 73577
" />
<path d="M80906 73014
L80962 72986
L81075 72986
L81131 73014
L81159 73042
L81187 73099
L81187 73267
L81159 73323
L81131 73352
L81075 73380
L80962 73380
L80906 73352
" />
<path d="M81693 73352
L81637 73380
L81525 73380
L81468 73352
L81440 73323
L81412 73267
L81412 73099
L81440 73042
L81468 73014
L81525 72986
L81637 72986
L81693 73014
" />
<path d="M81946 73380
L81946 72789
" />
<path d="M81946 73014
L82003 72986
L82115 72986
L82171 73014
L82199 73042
L82228 73099
L82228 73267
L82199 73323
L82171 73352
L82115 73380
L82003 73380
L81946 73352
" />
</g>
<g style="fill:#000000; fill-opacity:0.0; 
stroke:#000000; stroke-width:39.3701; stroke-opacity:1; 
stroke-linecap:round; stroke-linejoin:round;">
</g>
<g style="fill:#000000; fill-opacity:0.0; 
stroke:#000000; stroke-width:59.0551; stroke-opacity:1; 
stroke-linecap:round; stroke-linejoin:round;">
<path d="M69685 71459
L112205 71459
" />
</g>
<g style="fill:#000000; fill-opacity:0.0; 
stroke:#000000; stroke-width:39.3701; stroke-opacity:1; 
stroke-linecap:round; stroke-linejoin:round;">
</g>
<g style="fill:#000000; fill-opacity:0.0; 
stroke:#000000; stroke-width:59.0551; stroke-opacity:1; 
stroke-linecap:round; stroke-linejoin:round;">
<path d="M70192 72289
L70276 72317
L70417 72317
L70473 72289
L70501 72260
L70529 72204
L70529 72148
L70501 72092
L70473 72064
L70417 72036
L70304 72007
L70248 71979
L70220 71951
L70192 71895
L70192 71839
L70220 71782
L70248 71754
L70304 71726
L70445 71726
L70529 71754
" />
<path d="M70782 72317
L70782 71726
" />
<path d="M71035 72317
L71035 72007
L71007 71951
L70951 71923
L70867 71923
L70810 71951
L70782 71979
" />
<path d="M71541 72289
L71485 72317
L71373 72317
L71316 72289
L71288 72232
L71288 72007
L71316 71951
L71373 71923
L71485 71923
L71541 71951
L71570 72007
L71570 72064
L71288 72120
" />
<path d="M72048 72289
L71991 72317
L71879 72317
L71823 72289
L71795 72232
L71795 72007
L71823 71951
L71879 71923
L71991 71923
L72048 71951
L72076 72007
L72076 72064
L71795 72120
" />
<path d="M72244 71923
L72469 71923
" />
<path d="M72329 71726
L72329 72232
L72357 72289
L72413 72317
L72469 72317
" />
<path d="M72666 72260
L72694 72289
L72666 72317
L72638 72289
L72666 72260
L72666 72317
" />
<path d="M72666 71951
L72694 71979
L72666 72007
L72638 71979
L72666 71951
L72666 72007
" />
</g>
<g style="fill:#000000; fill-opacity:0.0; 
stroke:#000000; stroke-width:39.3701; stroke-opacity:1; 
stroke-linecap:round; stroke-linejoin:round;">
</g>
<g style="fill:#000000; fill-opacity:0.0; 
stroke:#000000; stroke-width:118.11; stroke-opacity:1; 
stroke-linecap:round; stroke-linejoin:round;">
<path d="M70135 70545
L70332 71136
L70529 70545
" />
<path d="M70951 71108
L70895 71136
L70782 71136
L70726 71108
L70698 71051
L70698 70826
L70726 70770
L70782 70742
L70895 70742
L70951 70770
L70979 70826
L70979 70883
L70698 70939
" />
<path d="M71232 70742
L71232 71136
" />
<path d="M71232 70798
L71260 70770
L71316 70742
L71401 70742
L71457 70770
L71485 70826
L71485 71136
" />
<path d="M71682 70742
L71907 70742
" />
<path d="M71766 70545
L71766 71051
L71795 71108
L71851 71136
L71907 71136
" />
<path d="M72076 71108
L72132 71136
L72244 71136
L72301 71108
L72329 71051
L72329 71023
L72301 70967
L72244 70939
L72160 70939
L72104 70911
L72076 70854
L72076 70826
L72104 70770
L72160 70742
L72244 70742
L72301 70770
" />
<path d="M72582 70742
L72582 71332
" />
<path d="M72582 70770
L72638 70742
L72751 70742
L72807 70770
L72835 70798
L72863 70854
L72863 71023
L72835 71079
L72807 71108
L72751 71136
L72638 71136
L72582 71108
" />
<path d="M73116 71136
L73116 70742
" />
<path d="M73116 70545
L73088 70573
L73116 70601
L73144 70573
L73116 70545
L73116 70601
" />
<path d="M73482 71136
L73426 71108
L73397 71051
L73397 70545
" />
<path d="M73679 71108
L73735 71136
L73847 71136
L73904 71108
L73932 71051
L73932 71023
L73904 70967
L73847 70939
L73763 70939
L73707 70911
L73679 70854
L73679 70826
L73707 70770
L73763 70742
L73847 70742
L73904 70770
" />
<path d="M74972 71079
L74944 71108
L74860 71136
L74804 71136
L74719 71108
L74663 71051
L74635 70995
L74607 70883
L74607 70798
L74635 70686
L74663 70629
L74719 70573
L74804 70545
L74860 70545
L74944 70573
L74972 70601
" />
<path d="M75310 71136
L75253 71108
L75225 71079
L75197 71023
L75197 70854
L75225 70798
L75253 70770
L75310 70742
L75394 70742
L75450 70770
L75478 70798
L75507 70854
L75507 71023
L75478 71079
L75450 71108
L75394 71136
L75310 71136
" />
<path d="M75844 71136
L75788 71108
L75760 71051
L75760 70545
" />
<path d="M76153 71136
L76097 71108
L76069 71051
L76069 70545
" />
<path d="M76603 71108
L76547 71136
L76435 71136
L76378 71108
L76350 71051
L76350 70826
L76378 70770
L76435 70742
L76547 70742
L76603 70770
L76631 70826
L76631 70883
L76350 70939
" />
<path d="M77138 70742
L77138 71220
L77109 71276
L77081 71304
L77025 71332
L76941 71332
L76885 71304
" />
<path d="M77138 71108
L77081 71136
L76969 71136
L76913 71108
L76885 71079
L76856 71023
L76856 70854
L76885 70798
L76913 70770
L76969 70742
L77081 70742
L77138 70770
" />
<path d="M77644 71108
L77588 71136
L77475 71136
L77419 71108
L77391 71051
L77391 70826
L77419 70770
L77475 70742
L77588 70742
L77644 70770
L77672 70826
L77672 70883
L77391 70939
" />
</g>
<g style="fill:#000000; fill-opacity:0.0; 
stroke:#000000; stroke-width:39.3701; stroke-opacity:1; 
stroke-linecap:round; stroke-linejoin:round;">
</g>
<g style="fill:#000000; fill-opacity:0.0; 
stroke:#000000; stroke-width:59.0551; stroke-opacity:1; 
stroke-linecap:round; stroke-linejoin:round;">
<path d="M70192 69786
L70473 69786
" />
<path d="M70135 69955
L70332 69364
L70529 69955
" />
<path d="M70979 69561
L70979 69955
" />
<path d="M70726 69561
L70726 69870
L70754 69926
L70810 69955
L70895 69955
L70951 69926
L70979 69898
" />
<path d="M71176 69561
L71401 69561
" />
<path d="M71260 69364
L71260 69870
L71288 69926
L71345 69955
L71401 69955
" />
<path d="M71682 69955
L71626 69926
L71598 69898
L71570 69842
L71570 69673
L71598 69617
L71626 69589
L71682 69561
L71766 69561
L71823 69589
L71851 69617
L71879 69673
L71879 69842
L71851 69898
L71823 69926
L71766 69955
L71682 69955
" />
<path d="M72132 69955
L72132 69561
" />
<path d="M72132 69673
L72160 69617
L72188 69589
L72244 69561
L72301 69561
" />
</g>
<g style="fill:#000000; fill-opacity:0.0; 
stroke:#000000; stroke-width:39.3701; stroke-opacity:1; 
stroke-linecap:round; stroke-linejoin:round;">
</g>
<g style="fill:#000000; fill-opacity:0.0; 
stroke:#000000; stroke-width:59.0551; stroke-opacity:1; 
stroke-linecap:round; stroke-linejoin:round;">
<path d="M70192 68605
L70473 68605
" />
<path d="M70135 68773
L70332 68183
L70529 68773
" />
<path d="M70726 68773
L70726 68183
" />
<path d="M70979 68773
L70979 68464
L70951 68408
L70895 68380
L70810 68380
L70754 68408
L70726 68436
" />
<path d="M71260 68773
L71260 68380
" />
<path d="M71260 68436
L71288 68408
L71345 68380
L71429 68380
L71485 68408
L71513 68464
L71513 68773
" />
<path d="M71513 68464
L71541 68408
L71598 68380
L71682 68380
L71738 68408
L71766 68464
L71766 68773
" />
<path d="M72273 68745
L72216 68773
L72104 68773
L72048 68745
L72019 68689
L72019 68464
L72048 68408
L72104 68380
L72216 68380
L72273 68408
L72301 68464
L72301 68520
L72019 68577
" />
<path d="M72469 68380
L72694 68380
" />
<path d="M72554 68183
L72554 68689
L72582 68745
L72638 68773
L72694 68773
" />
<path d="M73679 68717
L73651 68745
L73566 68773
L73510 68773
L73426 68745
L73369 68689
L73341 68633
L73313 68520
L73313 68436
L73341 68323
L73369 68267
L73426 68211
L73510 68183
L73566 68183
L73651 68211
L73679 68239
" />
<path d="M73538 68802
L73594 68830
L73622 68886
L73594 68942
L73538 68970
L73454 68970
" />
<path d="M74157 68745
L74100 68773
L73988 68773
L73932 68745
L73904 68689
L73904 68464
L73932 68408
L73988 68380
L74100 68380
L74157 68408
L74185 68464
L74185 68520
L73904 68577
" />
<path d="M74522 68773
L74466 68745
L74438 68689
L74438 68183
" />
<path d="M74747 68773
L74747 68380
" />
<path d="M74747 68183
L74719 68211
L74747 68239
L74775 68211
L74747 68183
L74747 68239
" />
<path d="M75028 68773
L75028 68183
" />
<path d="M75085 68548
L75253 68773
" />
<path d="M75253 68380
L75028 68605
" />
</g>
<g style="fill:#000000; fill-opacity:0.0; 
stroke:#000000; stroke-width:39.3701; stroke-opacity:1; 
stroke-linecap:round; stroke-linejoin:round;">
</g>
<g style="fill:#000000; fill-opacity:0.0; 
stroke:#000000; stroke-width:59.0551; stroke-opacity:1; 
stroke-linecap:round; stroke-linejoin:round;">
<path d="M70417 67283
L70220 67283
" />
<path d="M70220 67592
L70220 67002
L70501 67002
" />
<path d="M70726 67592
L70726 67199
" />
<path d="M70726 67002
L70698 67030
L70726 67058
L70754 67030
L70726 67002
L70726 67058
" />
<path d="M71007 67199
L71007 67592
" />
<path d="M71007 67255
L71035 67227
L71091 67199
L71176 67199
L71232 67227
L71260 67283
L71260 67592
" />
<path d="M71795 67592
L71795 67283
L71766 67227
L71710 67199
L71598 67199
L71541 67227
" />
<path d="M71795 67564
L71738 67592
L71598 67592
L71541 67564
L71513 67508
L71513 67452
L71541 67395
L71598 67367
L71738 67367
L71795 67339
" />
<path d="M72160 67592
L72104 67564
L72076 67508
L72076 67002
" />
<path d="M72244 67649
L72694 67649
" />
<path d="M72835 67592
L72835 67002
L73060 67002
L73116 67030
L73144 67058
L73172 67114
L73172 67199
L73144 67255
L73116 67283
L73060 67311
L72835 67311
" />
<path d="M73426 67592
L73426 67199
" />
<path d="M73426 67311
L73454 67255
L73482 67227
L73538 67199
L73594 67199
" />
<path d="M73876 67592
L73819 67564
L73791 67536
L73763 67480
L73763 67311
L73791 67255
L73819 67227
L73876 67199
L73960 67199
L74016 67227
L74044 67255
L74072 67311
L74072 67480
L74044 67536
L74016 67564
L73960 67592
L73876 67592
" />
<path d="M74325 67199
L74325 67705
L74297 67761
L74241 67789
L74213 67789
" />
<path d="M74325 67002
L74297 67030
L74325 67058
L74354 67030
L74325 67002
L74325 67058
" />
<path d="M74832 67564
L74775 67592
L74663 67592
L74607 67564
L74579 67508
L74579 67283
L74607 67227
L74663 67199
L74775 67199
L74832 67227
L74860 67283
L74860 67339
L74579 67395
" />
<path d="M75366 67564
L75310 67592
L75197 67592
L75141 67564
L75113 67536
L75085 67480
L75085 67311
L75113 67255
L75141 67227
L75197 67199
L75310 67199
L75366 67227
" />
<path d="M75535 67199
L75760 67199
" />
<path d="M75619 67002
L75619 67508
L75647 67564
L75703 67592
L75760 67592
" />
<path d="M75816 67649
L76266 67649
" />
<path d="M76406 67592
L76406 67002
L76631 67002
L76688 67030
L76716 67058
L76744 67114
L76744 67199
L76716 67255
L76688 67283
L76631 67311
L76406 67311
" />
<path d="M77334 67536
L77306 67564
L77222 67592
L77166 67592
L77081 67564
L77025 67508
L76997 67452
L76969 67339
L76969 67255
L76997 67142
L77025 67086
L77081 67030
L77166 67002
L77222 67002
L77306 67030
L77334 67058
" />
<path d="M77784 67283
L77869 67311
L77897 67339
L77925 67395
L77925 67480
L77897 67536
L77869 67564
L77813 67592
L77588 67592
L77588 67002
L77784 67002
L77841 67030
L77869 67058
L77897 67114
L77897 67171
L77869 67227
L77841 67255
L77784 67283
L77588 67283
" />
<path d="M78628 67592
L78628 67002
" />
<path d="M78965 67592
L78712 67255
" />
<path d="M78965 67002
L78628 67339
" />
<path d="M79472 67199
L79472 67592
" />
<path d="M79219 67199
L79219 67508
L79247 67564
L79303 67592
L79387 67592
L79444 67564
L79472 67536
" />
<path d="M79753 67592
L79753 67199
" />
<path d="M79753 67311
L79781 67255
L79809 67227
L79865 67199
L79922 67199
" />
<path d="M80090 67564
L80147 67592
L80259 67592
L80315 67564
L80343 67508
L80343 67480
L80315 67424
L80259 67395
L80175 67395
L80118 67367
L80090 67311
L80090 67283
L80118 67227
L80175 67199
L80259 67199
L80315 67227
" />
</g>
<g style="fill:#000000; fill-opacity:0.0; 
stroke:#000000; stroke-width:39.3701; stroke-opacity:1; 
stroke-linecap:round; stroke-linejoin:round;">
</g>
<g style="fill:#000000; fill-opacity:0.0; 
stroke:#000000; stroke-width:59.0551; stroke-opacity:1; 
stroke-linecap:round; stroke-linejoin:round;">
<path d="M77559 75396
L77559 76577
" />
</g>
<g style="fill:#000000; fill-opacity:0.0; 
stroke:#000000; stroke-width:39.3701; stroke-opacity:1; 
stroke-linecap:round; stroke-linejoin:round;">
</g>
<g style="fill:#000000; fill-opacity:0.0; 
stroke:#000000; stroke-width:59.0551; stroke-opacity:1; 
stroke-linecap:round; stroke-linejoin:round;">
<path d="M102756 75396
L102756 77955
" />
</g>
<g style="fill:#C2C200; fill-opacity:0.0; 
stroke:#C2C200; stroke-width:59.0551; stroke-opacity:1; 
stroke-linecap:round; stroke-linejoin:round;">
<path d="M24500 38250
L57750 38250
" />
<path d="M24500 17000
L24500 38250
" />
<path d="M57750 17000
L57750 38250
" />
<path d="M24500 17000
L57750 17000
" />
<path d="M32044 20337
L32025 20356
L31969 20374
L31931 20374
L31875 20356
L31837 20318
L31819 20281
L31800 20206
L31800 20149
L31819 20074
L31837 20037
L31875 20000
L31931 19981
L31969 19981
L32025 20000
L32044 20018
" />
<path d="M32419 20374
L32194 20374
" />
<path d="M32306 20374
L32306 19981
L32269 20037
L32231 20074
L32194 20093
" />
<path d="M32662 19981
L32700 19981
L32737 20000
L32756 20018
L32775 20056
L32794 20131
L32794 20224
L32775 20299
L32756 20337
L32737 20356
L32700 20374
L32662 20374
L32625 20356
L32606 20337
L32587 20299
L32569 20224
L32569 20131
L32587 20056
L32606 20018
L32625 20000
L32662 19981
" />
<path d="M50160 25503
L49972 25634
" />
<path d="M50160 25728
L49766 25728
L49766 25578
L49785 25540
L49804 25521
L49841 25503
L49897 25503
L49935 25521
L49954 25540
L49972 25578
L49972 25728
" />
<path d="M50160 25128
L50160 25353
" />
<path d="M50160 25240
L49766 25240
L49822 25278
L49860 25315
L49879 25353
" />
<path d="M49804 24978
L49785 24959
L49766 24921
L49766 24828
L49785 24790
L49804 24771
L49841 24753
L49879 24753
L49935 24771
L50160 24996
L50160 24753
" />
<path d="M46434 37140
L46415 37159
L46359 37178
L46321 37178
L46265 37159
L46228 37121
L46209 37084
L46190 37009
L46190 36953
L46209 36878
L46228 36840
L46265 36803
L46321 36784
L46359 36784
L46415 36803
L46434 36821
" />
<path d="M46809 37178
L46584 37178
" />
<path d="M46696 37178
L46696 36784
L46659 36840
L46621 36878
L46584 36896
" />
<path d="M26140 22065
L26159 22084
L26178 22140
L26178 22178
L26159 22234
L26121 22271
L26084 22290
L26009 22309
L25953 22309
L25878 22290
L25840 22271
L25803 22234
L25784 22178
L25784 22140
L25803 22084
L25821 22065
" />
<path d="M25821 21915
L25803 21896
L25784 21859
L25784 21765
L25803 21728
L25821 21709
L25859 21690
L25896 21690
L25953 21709
L26178 21934
L26178 21690
" />
<path d="M43434 34890
L43415 34909
L43359 34928
L43321 34928
L43265 34909
L43228 34871
L43209 34834
L43190 34759
L43190 34703
L43209 34628
L43228 34590
L43265 34553
L43321 34534
L43359 34534
L43415 34553
L43434 34571
" />
<path d="M43565 34534
L43809 34534
L43678 34684
L43734 34684
L43771 34703
L43790 34721
L43809 34759
L43809 34853
L43790 34890
L43771 34909
L43734 34928
L43621 34928
L43584 34909
L43565 34890
" />
<path d="M41477 31792
L41458 31810
L41402 31829
L41365 31829
L41308 31810
L41271 31773
L41252 31735
L41233 31660
L41233 31604
L41252 31529
L41271 31492
L41308 31454
L41365 31435
L41402 31435
L41458 31454
L41477 31473
" />
<path d="M41815 31567
L41815 31829
" />
<path d="M41721 31417
L41627 31698
L41871 31698
" />
<path d="M25434 36140
L25415 36159
L25359 36178
L25321 36178
L25265 36159
L25228 36121
L25209 36084
L25190 36009
L25190 35953
L25209 35878
L25228 35840
L25265 35803
L25321 35784
L25359 35784
L25415 35803
L25434 35821
" />
<path d="M25790 35784
L25603 35784
L25584 35971
L25603 35953
L25640 35934
L25734 35934
L25771 35953
L25790 35971
L25809 36009
L25809 36103
L25790 36140
L25771 36159
L25734 36178
L25640 36178
L25603 36159
L25584 36140
" />
<path d="M35193 26612
L35212 26631
L35231 26687
L35231 26725
L35212 26781
L35175 26819
L35137 26837
L35062 26856
L35006 26856
L34931 26837
L34893 26819
L34856 26781
L34837 26725
L34837 26687
L34856 26631
L34875 26612
" />
<path d="M34837 26275
L34837 26350
L34856 26387
L34875 26406
L34931 26444
L35006 26462
L35156 26462
L35193 26444
L35212 26425
L35231 26387
L35231 26312
L35212 26275
L35193 26256
L35156 26237
L35062 26237
L35025 26256
L35006 26275
L34987 26312
L34987 26387
L35006 26425
L35025 26444
L35062 26462
" />
<path d="M31137 20443
L31118 20462
L31062 20481
L31024 20481
L30968 20462
L30930 20425
L30912 20387
L30893 20312
L30893 20256
L30912 20181
L30930 20143
L30968 20106
L31024 20087
L31062 20087
L31118 20106
L31137 20125
" />
<path d="M31268 20087
L31530 20087
L31362 20481
" />
<path d="M47137 20443
L47118 20462
L47062 20481
L47024 20481
L46968 20462
L46930 20425
L46912 20387
L46893 20312
L46893 20256
L46912 20181
L46930 20143
L46968 20106
L47024 20087
L47062 20087
L47118 20106
L47137 20125
" />
<path d="M47362 20256
L47324 20237
L47305 20218
L47287 20181
L47287 20162
L47305 20125
L47324 20106
L47362 20087
L47437 20087
L47474 20106
L47493 20125
L47512 20162
L47512 20181
L47493 20218
L47474 20237
L47437 20256
L47362 20256
L47324 20275
L47305 20293
L47287 20331
L47287 20406
L47305 20443
L47324 20462
L47362 20481
L47437 20481
L47474 20462
L47493 20443
L47512 20406
L47512 20331
L47493 20293
L47474 20275
L47437 20256
" />
<path d="M52387 20587
L52368 20606
L52312 20624
L52274 20624
L52218 20606
L52180 20568
L52162 20531
L52143 20456
L52143 20399
L52162 20324
L52180 20287
L52218 20250
L52274 20231
L52312 20231
L52368 20250
L52387 20268
" />
<path d="M52574 20624
L52649 20624
L52687 20606
L52705 20587
L52743 20531
L52762 20456
L52762 20306
L52743 20268
L52724 20250
L52687 20231
L52612 20231
L52574 20250
L52555 20268
L52537 20306
L52537 20399
L52555 20437
L52574 20456
L52612 20474
L52687 20474
L52724 20456
L52743 20437
L52762 20399
" />
<path d="M51782 30790
L51388 30790
L51388 30696
L51407 30640
L51444 30603
L51482 30584
L51557 30565
L51613 30565
L51688 30584
L51726 30603
L51763 30640
L51782 30696
L51782 30790
" />
<path d="M51782 30190
L51782 30415
" />
<path d="M51782 30303
L51388 30303
L51444 30340
L51482 30378
L51501 30415
" />
<path d="M57573 30790
L57180 30790
L57180 30696
L57198 30640
L57236 30603
L57273 30584
L57348 30565
L57405 30565
L57480 30584
L57517 30603
L57555 30640
L57573 30696
L57573 30790
" />
<path d="M57217 30415
L57198 30396
L57180 30359
L57180 30265
L57198 30228
L57217 30209
L57255 30190
L57292 30190
L57348 30209
L57573 30434
L57573 30190
" />
<path d="M53959 18178
L53959 17784
L54053 17784
L54109 17803
L54146 17840
L54165 17878
L54184 17953
L54184 18009
L54165 18084
L54146 18121
L54109 18159
L54053 18178
L53959 18178
" />
<path d="M54315 17784
L54559 17784
L54428 17934
L54484 17934
L54521 17953
L54540 17971
L54559 18009
L54559 18103
L54540 18140
L54521 18159
L54484 18178
L54371 18178
L54334 18159
L54315 18140
" />
<path d="M53709 36823
L53709 36430
L53803 36430
L53859 36448
L53896 36486
L53915 36523
L53934 36598
L53934 36655
L53915 36730
L53896 36767
L53859 36805
L53803 36823
L53709 36823
" />
<path d="M54271 36561
L54271 36823
" />
<path d="M54178 36411
L54084 36692
L54328 36692
" />
<path d="M53209 25323
L53209 24930
L53303 24930
L53359 24948
L53396 24986
L53415 25023
L53434 25098
L53434 25155
L53415 25230
L53396 25267
L53359 25305
L53303 25323
L53209 25323
" />
<path d="M53790 24930
L53603 24930
L53584 25117
L53603 25098
L53640 25080
L53734 25080
L53771 25098
L53790 25117
L53809 25155
L53809 25248
L53790 25286
L53771 25305
L53734 25323
L53640 25323
L53603 25305
L53584 25286
" />
<path d="M51573 31540
L51180 31540
L51180 31446
L51198 31390
L51236 31353
L51273 31334
L51348 31315
L51405 31315
L51480 31334
L51517 31353
L51555 31390
L51573 31446
L51573 31540
" />
<path d="M51180 30978
L51180 31053
L51198 31090
L51217 31109
L51273 31146
L51348 31165
L51498 31165
L51536 31146
L51555 31128
L51573 31090
L51573 31015
L51555 30978
L51536 30959
L51498 30940
L51405 30940
L51367 30959
L51348 30978
L51330 31015
L51330 31090
L51348 31128
L51367 31146
L51405 31165
" />
<path d="M47117 23287
L47098 23324
L47060 23362
L47004 23418
L46985 23456
L46985 23493
" />
<path d="M47079 23474
L47060 23512
L47023 23549
L46948 23568
L46817 23568
L46742 23549
L46704 23512
L46685 23474
L46685 23399
L46704 23362
L46742 23324
L46817 23306
L46948 23306
L47023 23324
L47060 23362
L47079 23399
L47079 23474
" />
<path d="M46685 23175
L46685 22931
L46835 23062
L46835 23006
L46854 22968
L46873 22950
L46910 22931
L47004 22931
L47042 22950
L47060 22968
L47079 23006
L47079 23118
L47060 23156
L47042 23175
" />
<path d="M42462 27867
L42425 27848
L42387 27810
L42331 27754
L42293 27735
L42256 27735
" />
<path d="M42275 27829
L42237 27810
L42200 27773
L42181 27698
L42181 27567
L42200 27492
L42237 27454
L42275 27435
L42350 27435
L42387 27454
L42425 27492
L42443 27567
L42443 27698
L42425 27773
L42387 27810
L42350 27829
L42275 27829
" />
<path d="M42781 27567
L42781 27829
" />
<path d="M42687 27417
L42593 27698
L42837 27698
" />
<path d="M44117 23287
L44098 23324
L44060 23362
L44004 23418
L43985 23456
L43985 23493
" />
<path d="M44079 23474
L44060 23512
L44023 23549
L43948 23568
L43817 23568
L43742 23549
L43704 23512
L43685 23474
L43685 23399
L43704 23362
L43742 23324
L43817 23306
L43948 23306
L44023 23324
L44060 23362
L44079 23399
L44079 23474
" />
<path d="M43685 22950
L43685 23137
L43873 23156
L43854 23137
L43835 23100
L43835 23006
L43854 22968
L43873 22950
L43910 22931
L44004 22931
L44042 22950
L44060 22968
L44079 23006
L44079 23100
L44060 23137
L44042 23156
" />
<path d="M49160 31065
L48972 31196
" />
<path d="M49160 31290
L48766 31290
L48766 31140
L48785 31103
L48804 31084
L48841 31065
L48897 31065
L48935 31084
L48954 31103
L48972 31140
L48972 31290
" />
<path d="M49160 30690
L49160 30915
" />
<path d="M49160 30803
L48766 30803
L48822 30840
L48860 30878
L48879 30915
" />
<path d="M47678 25315
L47490 25446
" />
<path d="M47678 25540
L47284 25540
L47284 25390
L47303 25353
L47321 25334
L47359 25315
L47415 25315
L47453 25334
L47471 25353
L47490 25390
L47490 25540
" />
<path d="M47321 25165
L47303 25146
L47284 25109
L47284 25015
L47303 24978
L47321 24959
L47359 24940
L47396 24940
L47453 24959
L47678 25184
L47678 24940
" />
<path d="M30945 29815
L30758 29946
" />
<path d="M30945 30040
L30552 30040
L30552 29890
L30570 29853
L30589 29834
L30627 29815
L30683 29815
L30720 29834
L30739 29853
L30758 29890
L30758 30040
" />
<path d="M30552 29684
L30552 29440
L30702 29571
L30702 29515
L30720 29478
L30739 29459
L30777 29440
L30870 29440
L30908 29459
L30927 29478
L30945 29515
L30945 29628
L30927 29665
L30908 29684
" />
<path d="M32410 25065
L32222 25196
" />
<path d="M32410 25290
L32016 25290
L32016 25140
L32035 25103
L32054 25084
L32091 25065
L32147 25065
L32185 25084
L32204 25103
L32222 25140
L32222 25290
" />
<path d="M32147 24728
L32410 24728
" />
<path d="M31997 24821
L32279 24915
L32279 24671
" />
<path d="M34184 30695
L34053 30508
" />
<path d="M33959 30695
L33959 30302
L34109 30302
L34146 30320
L34165 30339
L34184 30377
L34184 30433
L34165 30470
L34146 30489
L34109 30508
L33959 30508
" />
<path d="M34540 30302
L34353 30302
L34334 30489
L34353 30470
L34390 30452
L34484 30452
L34521 30470
L34540 30489
L34559 30527
L34559 30620
L34540 30658
L34521 30677
L34484 30695
L34390 30695
L34353 30677
L34334 30658
" />
<path d="M36300 29345
L36169 29157
" />
<path d="M36075 29345
L36075 28951
L36225 28951
L36263 28970
L36281 28989
L36300 29026
L36300 29082
L36281 29120
L36263 29139
L36225 29157
L36075 29157
" />
<path d="M36637 28951
L36562 28951
L36525 28970
L36506 28989
L36469 29045
L36450 29120
L36450 29270
L36469 29307
L36488 29326
L36525 29345
L36600 29345
L36637 29326
L36656 29307
L36675 29270
L36675 29176
L36656 29139
L36637 29120
L36600 29101
L36525 29101
L36488 29120
L36469 29139
L36450 29176
" />
<path d="M45410 26815
L45222 26946
" />
<path d="M45410 27040
L45016 27040
L45016 26890
L45035 26853
L45054 26834
L45091 26815
L45147 26815
L45185 26834
L45204 26853
L45222 26890
L45222 27040
" />
<path d="M45016 26684
L45016 26421
L45410 26590
" />
<path d="M52184 27160
L52053 26972
" />
<path d="M51959 27160
L51959 26766
L52109 26766
L52146 26785
L52165 26804
L52184 26841
L52184 26897
L52165 26935
L52146 26954
L52109 26972
L51959 26972
" />
<path d="M52409 26935
L52371 26916
L52353 26897
L52334 26860
L52334 26841
L52353 26804
L52371 26785
L52409 26766
L52484 26766
L52521 26785
L52540 26804
L52559 26841
L52559 26860
L52540 26897
L52521 26916
L52484 26935
L52409 26935
L52371 26954
L52353 26972
L52334 27010
L52334 27085
L52353 27122
L52371 27141
L52409 27160
L52484 27160
L52521 27141
L52540 27122
L52559 27085
L52559 27010
L52540 26972
L52521 26954
L52484 26935
" />
<path d="M39184 26910
L39053 26722
" />
<path d="M38959 26910
L38959 26516
L39109 26516
L39146 26535
L39165 26554
L39184 26591
L39184 26647
L39165 26685
L39146 26704
L39109 26722
L38959 26722
" />
<path d="M39371 26910
L39446 26910
L39484 26891
L39503 26872
L39540 26816
L39559 26741
L39559 26591
L39540 26554
L39521 26535
L39484 26516
L39409 26516
L39371 26535
L39353 26554
L39334 26591
L39334 26685
L39353 26722
L39371 26741
L39409 26760
L39484 26760
L39521 26741
L39540 26722
L39559 26685
" />
<path d="M38496 21178
L38365 20990
" />
<path d="M38271 21178
L38271 20784
L38421 20784
L38459 20803
L38478 20821
L38496 20859
L38496 20915
L38478 20953
L38459 20971
L38421 20990
L38271 20990
" />
<path d="M38871 21178
L38646 21178
" />
<path d="M38759 21178
L38759 20784
L38721 20840
L38684 20878
L38646 20896
" />
<path d="M39115 20784
L39153 20784
L39190 20803
L39209 20821
L39228 20859
L39246 20934
L39246 21028
L39228 21103
L39209 21140
L39190 21159
L39153 21178
L39115 21178
L39078 21159
L39059 21140
L39040 21103
L39021 21028
L39021 20934
L39040 20859
L39059 20821
L39078 20803
L39115 20784
" />
<path d="M47445 22753
L47258 22884
" />
<path d="M47445 22978
L47052 22978
L47052 22828
L47070 22790
L47089 22771
L47127 22753
L47183 22753
L47220 22771
L47239 22790
L47258 22828
L47258 22978
" />
<path d="M47445 22378
L47445 22603
" />
<path d="M47445 22490
L47052 22490
L47108 22528
L47145 22565
L47164 22603
" />
<path d="M47445 22003
L47445 22228
" />
<path d="M47445 22115
L47052 22115
L47108 22153
L47145 22190
L47164 22228
" />
<path d="M38996 28660
L38865 28472
" />
<path d="M38771 28660
L38771 28266
L38921 28266
L38959 28285
L38978 28304
L38996 28341
L38996 28397
L38978 28435
L38959 28454
L38921 28472
L38771 28472
" />
<path d="M39371 28660
L39146 28660
" />
<path d="M39259 28660
L39259 28266
L39221 28322
L39184 28360
L39146 28379
" />
<path d="M39503 28266
L39746 28266
L39615 28416
L39671 28416
L39709 28435
L39728 28454
L39746 28491
L39746 28585
L39728 28622
L39709 28641
L39671 28660
L39559 28660
L39521 28641
L39503 28622
" />
<path d="M42996 21428
L42865 21240
" />
<path d="M42771 21428
L42771 21034
L42921 21034
L42959 21053
L42978 21071
L42996 21109
L42996 21165
L42978 21203
L42959 21221
L42921 21240
L42771 21240
" />
<path d="M43371 21428
L43146 21428
" />
<path d="M43259 21428
L43259 21034
L43221 21090
L43184 21128
L43146 21146
" />
<path d="M43709 21165
L43709 21428
" />
<path d="M43615 21015
L43521 21296
L43765 21296
" />
<path d="M47410 31253
L47222 31384
" />
<path d="M47410 31478
L47016 31478
L47016 31328
L47035 31290
L47054 31271
L47091 31253
L47147 31253
L47185 31271
L47204 31290
L47222 31328
L47222 31478
" />
<path d="M47410 30878
L47410 31103
" />
<path d="M47410 30990
L47016 30990
L47072 31028
L47110 31065
L47129 31103
" />
<path d="M47016 30521
L47016 30709
L47204 30728
L47185 30709
L47166 30671
L47166 30578
L47185 30540
L47204 30521
L47241 30503
L47335 30503
L47372 30521
L47391 30540
L47410 30578
L47410 30671
L47391 30709
L47372 30728
" />
<path d="M37195 34503
L37008 34634
" />
<path d="M37195 34728
L36802 34728
L36802 34578
L36820 34540
L36839 34521
L36877 34503
L36933 34503
L36970 34521
L36989 34540
L37008 34578
L37008 34728
" />
<path d="M37195 34128
L37195 34353
" />
<path d="M37195 34240
L36802 34240
L36858 34278
L36895 34315
L36914 34353
" />
<path d="M36802 33790
L36802 33865
L36820 33903
L36839 33921
L36895 33959
L36970 33978
L37120 33978
L37158 33959
L37177 33940
L37195 33903
L37195 33828
L37177 33790
L37158 33771
L37120 33753
L37027 33753
L36989 33771
L36970 33790
L36952 33828
L36952 33903
L36970 33940
L36989 33959
L37027 33978
" />
<path d="M34450 36909
L34506 36928
L34600 36928
L34637 36909
L34656 36890
L34675 36853
L34675 36815
L34656 36778
L34637 36759
L34600 36740
L34525 36721
L34487 36703
L34468 36684
L34450 36646
L34450 36609
L34468 36571
L34487 36553
L34525 36534
L34618 36534
L34675 36553
" />
<path d="M35049 36928
L34824 36928
" />
<path d="M34937 36928
L34937 36534
L34899 36590
L34862 36628
L34824 36646
" />
<path d="M37685 24049
L37685 23824
" />
<path d="M38079 23937
L37685 23937
" />
<path d="M38079 23487
L38079 23712
" />
<path d="M38079 23600
L37685 23600
L37742 23637
L37779 23675
L37798 23712
" />
<path d="M39450 24435
L39675 24435
" />
<path d="M39562 24829
L39562 24435
" />
<path d="M39787 24473
L39806 24454
L39843 24435
L39937 24435
L39974 24454
L39993 24473
L40012 24510
L40012 24548
L39993 24604
L39768 24829
L40012 24829
" />
<path d="M39209 35678
L39209 35284
L39359 35284
L39396 35303
L39415 35321
L39434 35359
L39434 35415
L39415 35453
L39396 35471
L39359 35490
L39209 35490
" />
<path d="M39809 35678
L39584 35678
" />
<path d="M39696 35678
L39696 35284
L39659 35340
L39621 35378
L39584 35396
" />
<path d="M35462 32815
L35425 32797
L35387 32759
L35331 32703
L35293 32684
L35256 32684
" />
<path d="M35275 32778
L35237 32759
L35200 32722
L35181 32647
L35181 32516
L35200 32441
L35237 32403
L35275 32384
L35350 32384
L35387 32403
L35425 32441
L35443 32516
L35443 32647
L35425 32722
L35387 32759
L35350 32778
L35275 32778
" />
<path d="M35781 32384
L35706 32384
L35668 32403
L35649 32422
L35612 32478
L35593 32553
L35593 32703
L35612 32741
L35631 32759
L35668 32778
L35743 32778
L35781 32759
L35799 32741
L35818 32703
L35818 32609
L35799 32572
L35781 32553
L35743 32534
L35668 32534
L35631 32553
L35612 32572
L35593 32609
" />
<path d="M27234 31662
L27365 32056
L27496 31662
" />
<path d="M27853 32056
L27721 31868
" />
<path d="M27628 32056
L27628 31662
L27778 31662
L27815 31681
L27834 31699
L27853 31737
L27853 31793
L27834 31831
L27815 31849
L27778 31868
L27628 31868
" />
<path d="M28228 32056
L28003 32056
" />
<path d="M28115 32056
L28115 31662
L28078 31718
L28040 31756
L28003 31774
" />
<path d="M38156 18765
L38550 18634
L38156 18503
" />
<path d="M38550 18146
L38362 18278
" />
<path d="M38550 18371
L38156 18371
L38156 18221
L38175 18184
L38193 18165
L38231 18146
L38287 18146
L38325 18165
L38343 18184
L38362 18221
L38362 18371
" />
<path d="M38193 17996
L38175 17978
L38156 17940
L38156 17846
L38175 17809
L38193 17790
L38231 17771
L38268 17771
L38325 17790
L38550 18015
L38550 17771
" />
</g>
<g style="fill:#008484; fill-opacity:0.0; 
stroke:#008484; stroke-width:59.0551; stroke-opacity:1; 
stroke-linecap:round; stroke-linejoin:round;">
</g>
<g style="fill:#008484; fill-opacity:0.0; 
stroke:#008484; stroke-width:47.2441; stroke-opacity:1; 
stroke-linecap:round; stroke-linejoin:round;">
<path d="M30899 21500
L31490 21500
" />
<path d="M31194 21204
L31194 21795
" />
<path d="M30305 20590
L30305 22409
" />
<path d="M34289 20590
L34289 22409
" />
<path d="M30305 20590
L30895 20590
" />
<path d="M30895 20590
L31190 20885
" />
<path d="M31190 20885
L31486 20590
" />
<path d="M31486 20590
L34289 20590
" />
<path d="M30305 22409
L30895 22409
" />
<path d="M30895 22409
L31190 22114
" />
<path d="M31190 22114
L31486 22409
" />
<path d="M31486 22409
L34289 22409
" />
<path d="M29809 21500
L30305 21500
" />
<path d="M34785 21500
L34289 21500
" />
<path d="M49588 24517
L48911 24517
" />
<path d="M48911 24517
L48911 25982
" />
<path d="M48911 25982
L49588 25982
" />
<path d="M49588 25982
L49588 24517
" />
<path d="M49250 24096
L49250 24517
" />
<path d="M49250 26403
L49250 25982
" />
<path d="M47944 36500
L47354 36500
" />
<path d="M47649 36795
L47649 36204
" />
<path d="M48539 37409
L48539 35590
" />
<path d="M44555 37409
L44555 35590
" />
<path d="M48539 37409
L47948 37409
" />
<path d="M47948 37409
L47653 37114
" />
<path d="M47653 37114
L47358 37409
" />
<path d="M47358 37409
L44555 37409
" />
<path d="M48539 35590
L47948 35590
" />
<path d="M47948 35590
L47653 35885
" />
<path d="M47653 35885
L47358 35590
" />
<path d="M47358 35590
L44555 35590
" />
<path d="M49035 36500
L48539 36500
" />
<path d="M44059 36500
L44555 36500
" />
<path d="M26250 23519
L26250 22811
" />
<path d="M25895 23165
L26604 23165
" />
<path d="M25242 24232
L27257 24232
" />
<path d="M25242 19854
L27257 19854
" />
<path d="M25242 24232
L25242 23523
" />
<path d="M25242 23523
L25596 23169
" />
<path d="M25596 23169
L25242 22814
" />
<path d="M25242 22814
L25242 19854
" />
<path d="M27257 24232
L27257 23523
" />
<path d="M27257 23523
L26903 23169
" />
<path d="M26903 23169
L27257 22814
" />
<path d="M27257 22814
L27257 19854
" />
<path d="M26250 25043
L26250 24232
" />
<path d="M26250 19043
L26250 19854
" />
<path d="M45019 34000
L44311 34000
" />
<path d="M44665 34354
L44665 33645
" />
<path d="M45732 35007
L45732 32992
" />
<path d="M41354 35007
L41354 32992
" />
<path d="M45732 35007
L45023 35007
" />
<path d="M45023 35007
L44669 34653
" />
<path d="M44669 34653
L44314 35007
" />
<path d="M44314 35007
L41354 35007
" />
<path d="M45732 32992
L45023 32992
" />
<path d="M45023 32992
L44669 33346
" />
<path d="M44669 33346
L44314 32992
" />
<path d="M44314 32992
L41354 32992
" />
<path d="M46543 34000
L45732 34000
" />
<path d="M40543 34000
L41354 34000
" />
<path d="M43019 30250
L42311 30250
" />
<path d="M42665 30604
L42665 29895
" />
<path d="M43732 31257
L43732 29242
" />
<path d="M39354 31257
L39354 29242
" />
<path d="M43732 31257
L43023 31257
" />
<path d="M43023 31257
L42669 30903
" />
<path d="M42669 30903
L42314 31257
" />
<path d="M42314 31257
L39354 31257
" />
<path d="M43732 29242
L43023 29242
" />
<path d="M43023 29242
L42669 29596
" />
<path d="M42669 29596
L42314 29242
" />
<path d="M42314 29242
L39354 29242
" />
<path d="M44543 30250
L43732 30250
" />
<path d="M38543 30250
L39354 30250
" />
<path d="M27149 36000
L27740 36000
" />
<path d="M27444 35704
L27444 36295
" />
<path d="M26555 35090
L26555 36909
" />
<path d="M30539 35090
L30539 36909
" />
<path d="M26555 35090
L27145 35090
" />
<path d="M27145 35090
L27440 35385
" />
<path d="M27440 35385
L27736 35090
" />
<path d="M27736 35090
L30539 35090
" />
<path d="M26555 36909
L27145 36909
" />
<path d="M27145 36909
L27440 36614
" />
<path d="M27440 36614
L27736 36909
" />
<path d="M27736 36909
L30539 36909
" />
<path d="M26059 36000
L26555 36000
" />
<path d="M31035 36000
L30539 36000
" />
<path d="M33750 25149
L33750 25740
" />
<path d="M34045 25444
L33454 25444
" />
<path d="M34659 24555
L32840 24555
" />
<path d="M34659 28539
L32840 28539
" />
<path d="M34659 24555
L34659 25145
" />
<path d="M34659 25145
L34364 25440
" />
<path d="M34364 25440
L34659 25736
" />
<path d="M34659 25736
L34659 28539
" />
<path d="M32840 24555
L32840 25145
" />
<path d="M32840 25145
L33135 25440
" />
<path d="M33135 25440
L32840 25736
" />
<path d="M32840 25736
L32840 28539
" />
<path d="M33750 24059
L33750 24555
" />
<path d="M33750 29035
L33750 28539
" />
<path d="M32600 19000
L32009 19000
" />
<path d="M32305 19295
L32305 18704
" />
<path d="M33194 19909
L33194 18090
" />
<path d="M29210 19909
L29210 18090
" />
<path d="M33194 19909
L32604 19909
" />
<path d="M32604 19909
L32309 19614
" />
<path d="M32309 19614
L32013 19909
" />
<path d="M32013 19909
L29210 19909
" />
<path d="M33194 18090
L32604 18090
" />
<path d="M32604 18090
L32309 18385
" />
<path d="M32309 18385
L32013 18090
" />
<path d="M32013 18090
L29210 18090
" />
<path d="M33690 19000
L33194 19000
" />
<path d="M28714 19000
L29210 19000
" />
<path d="M48600 19000
L48009 19000
" />
<path d="M48305 19295
L48305 18704
" />
<path d="M49194 19909
L49194 18090
" />
<path d="M45210 19909
L45210 18090
" />
<path d="M49194 19909
L48604 19909
" />
<path d="M48604 19909
L48309 19614
" />
<path d="M48309 19614
L48013 19909
" />
<path d="M48013 19909
L45210 19909
" />
<path d="M49194 18090
L48604 18090
" />
<path d="M48604 18090
L48309 18385
" />
<path d="M48309 18385
L48013 18090
" />
<path d="M48013 18090
L45210 18090
" />
<path d="M49690 19000
L49194 19000
" />
<path d="M44714 19000
L45210 19000
" />
<path d="M51055 21750
L51645 21750
" />
<path d="M51350 21454
L51350 22045
" />
<path d="M50460 20840
L50460 22659
" />
<path d="M54444 20840
L54444 22659
" />
<path d="M50460 20840
L51051 20840
" />
<path d="M51051 20840
L51346 21135
" />
<path d="M51346 21135
L51641 20840
" />
<path d="M51641 20840
L54444 20840
" />
<path d="M50460 22659
L51051 22659
" />
<path d="M51051 22659
L51346 22364
" />
<path d="M51346 22364
L51641 22659
" />
<path d="M51641 22659
L54444 22659
" />
<path d="M49964 21750
L50460 21750
" />
<path d="M54940 21750
L54444 21750
" />
<path d="M51998 32275
L53501 32275
" />
<path d="M53501 32275
L53501 28724
" />
<path d="M53501 28724
L51998 28724
" />
<path d="M51998 28724
L51998 32275
" />
<path d="M52750 32377
L52750 32275
" />
<path d="M52750 28622
L52750 28724
" />
<path d="M51998 31726
L53501 31726
" />
<path d="M57001 28724
L55498 28724
" />
<path d="M55498 28724
L55498 32275
" />
<path d="M55498 32275
L57001 32275
" />
<path d="M57001 32275
L57001 28724
" />
<path d="M56250 28622
L56250 28724
" />
<path d="M56250 32377
L56250 32275
" />
<path d="M57001 29273
L55498 29273
" />
<path d="M52474 18248
L52474 19751
" />
<path d="M52474 19751
L56025 19751
" />
<path d="M56025 19751
L56025 18248
" />
<path d="M56025 18248
L52474 18248
" />
<path d="M52372 19000
L52474 19000
" />
<path d="M56127 19000
L56025 19000
" />
<path d="M53023 18248
L53023 19751
" />
<path d="M55775 36251
L55775 34748
" />
<path d="M55775 34748
L52224 34748
" />
<path d="M52224 34748
L52224 36251
" />
<path d="M52224 36251
L55775 36251
" />
<path d="M55877 35500
L55775 35500
" />
<path d="M52122 35500
L52224 35500
" />
<path d="M55226 36251
L55226 34748
" />
<path d="M55275 24751
L55275 23248
" />
<path d="M55275 23248
L51724 23248
" />
<path d="M51724 23248
L51724 24751
" />
<path d="M51724 24751
L55275 24751
" />
<path d="M55377 24000
L55275 24000
" />
<path d="M51622 24000
L51724 24000
" />
<path d="M54726 24751
L54726 23248
" />
<path d="M51001 29474
L49498 29474
" />
<path d="M49498 29474
L49498 33025
" />
<path d="M49498 33025
L51001 33025
" />
<path d="M51001 33025
L51001 29474
" />
<path d="M50250 29372
L50250 29474
" />
<path d="M50250 33127
L50250 33025
" />
<path d="M51001 30023
L49498 30023
" />
<path d="M44771 22541
L44771 23958
" />
<path d="M46523.6 23250 A1023.62 1023.62 0.0 0 0 44776.2 22526.2 " />
<path d="M44776.2 23973.8 A1023.62 1023.62 0.0 0 0 46523.6 23250 " />
<path d="M43208 25521
L41791 25521
" />
<path d="M42500 27273.6 A1023.62 1023.62 0.0 0 0 43223.8 25526.2 " />
<path d="M41776.2 25526.2 A1023.62 1023.62 0.0 0 0 42500 27273.6 " />
<path d="M41771 22541
L41771 23958
" />
<path d="M43523.6 23250 A1023.62 1023.62 0.0 0 0 41776.2 22526.2 " />
<path d="M41776.2 23973.8 A1023.62 1023.62 0.0 0 0 43523.6 23250 " />
<path d="M48588 30267
L47911 30267
" />
<path d="M47911 30267
L47911 31732
" />
<path d="M47911 31732
L48588 31732
" />
<path d="M48588 31732
L48588 30267
" />
<path d="M48250 29846
L48250 30267
" />
<path d="M48250 32153
L48250 31732
" />
<path d="M46838 26017
L46161 26017
" />
<path d="M46161 26017
L46161 27482
" />
<path d="M46161 27482
L46838 27482
" />
<path d="M46838 27482
L46838 26017
" />
<path d="M46500 25596
L46500 26017
" />
<path d="M46500 27903
L46500 27482
" />
<path d="M31161 30482
L31838 30482
" />
<path d="M31838 30482
L31838 29017
" />
<path d="M31838 29017
L31161 29017
" />
<path d="M31161 29017
L31161 30482
" />
<path d="M31500 30903
L31500 30482
" />
<path d="M31500 28596
L31500 29017
" />
<path d="M31838 24267
L31161 24267
" />
<path d="M31161 24267
L31161 25732
" />
<path d="M31161 25732
L31838 25732
" />
<path d="M31838 25732
L31838 24267
" />
<path d="M31500 23846
L31500 24267
" />
<path d="M31500 26153
L31500 25732
" />
<path d="M33517 30911
L33517 31588
" />
<path d="M33517 31588
L34982 31588
" />
<path d="M34982 31588
L34982 30911
" />
<path d="M34982 30911
L33517 30911
" />
<path d="M33096 31250
L33517 31250
" />
<path d="M35403 31250
L34982 31250
" />
<path d="M36588 27517
L35911 27517
" />
<path d="M35911 27517
L35911 28982
" />
<path d="M35911 28982
L36588 28982
" />
<path d="M36588 28982
L36588 27517
" />
<path d="M36250 27096
L36250 27517
" />
<path d="M36250 29403
L36250 28982
" />
<path d="M44838 26017
L44161 26017
" />
<path d="M44161 26017
L44161 27482
" />
<path d="M44161 27482
L44838 27482
" />
<path d="M44838 27482
L44838 26017
" />
<path d="M44500 25596
L44500 26017
" />
<path d="M44500 27903
L44500 27482
" />
<path d="M52982 26588
L52982 25911
" />
<path d="M52982 25911
L51517 25911
" />
<path d="M51517 25911
L51517 26588
" />
<path d="M51517 26588
L52982 26588
" />
<path d="M53403 26250
L52982 26250
" />
<path d="M51096 26250
L51517 26250
" />
<path d="M39982 26338
L39982 25661
" />
<path d="M39982 25661
L38517 25661
" />
<path d="M38517 25661
L38517 26338
" />
<path d="M38517 26338
L39982 26338
" />
<path d="M40403 26000
L39982 26000
" />
<path d="M38096 26000
L38517 26000
" />
<path d="M38017 20911
L38017 21588
" />
<path d="M38017 21588
L39482 21588
" />
<path d="M39482 21588
L39482 20911
" />
<path d="M39482 20911
L38017 20911
" />
<path d="M37596 21250
L38017 21250
" />
<path d="M39903 21250
L39482 21250
" />
<path d="M47661 23232
L48338 23232
" />
<path d="M48338 23232
L48338 21767
" />
<path d="M48338 21767
L47661 21767
" />
<path d="M47661 21767
L47661 23232
" />
<path d="M48000 23653
L48000 23232
" />
<path d="M48000 21346
L48000 21767
" />
<path d="M39982 28088
L39982 27411
" />
<path d="M39982 27411
L38517 27411
" />
<path d="M38517 27411
L38517 28088
" />
<path d="M38517 28088
L39982 28088
" />
<path d="M40403 27750
L39982 27750
" />
<path d="M38096 27750
L38517 27750
" />
<path d="M42517 20911
L42517 21588
" />
<path d="M42517 21588
L43982 21588
" />
<path d="M43982 21588
L43982 20911
" />
<path d="M43982 20911
L42517 20911
" />
<path d="M42096 21250
L42517 21250
" />
<path d="M44403 21250
L43982 21250
" />
<path d="M46838 30267
L46161 30267
" />
<path d="M46161 30267
L46161 31732
" />
<path d="M46161 31732
L46838 31732
" />
<path d="M46838 31732
L46838 30267
" />
<path d="M46500 29846
L46500 30267
" />
<path d="M46500 32153
L46500 31732
" />
<path d="M37411 34982
L38088 34982
" />
<path d="M38088 34982
L38088 33517
" />
<path d="M38088 33517
L37411 33517
" />
<path d="M37411 33517
L37411 34982
" />
<path d="M37750 35403
L37750 34982
" />
<path d="M37750 33096
L37750 33517
" />
</g>
<g style="fill:#008484; fill-opacity:0.0; 
stroke:#008484; stroke-width:59.0551; stroke-opacity:1; 
stroke-linecap:round; stroke-linejoin:round;">
<path d="M32411 37242
L37135 37242
" />
<path d="M32411 35706
L37135 35706
" />
<path d="M37135 35706
L37135 37242
" />
<path d="M32411 35706
L32411 37242
" />
</g>
<g style="fill:#008484; fill-opacity:0.0; 
stroke:#008484; stroke-width:47.2441; stroke-opacity:1; 
stroke-linecap:round; stroke-linejoin:round;">
<path d="M35771 23041
L35771 24458
" />
<path d="M37523.6 23750 A1023.62 1023.62 0.0 0 0 35776.2 23026.2 " />
<path d="M35776.2 24473.8 A1023.62 1023.62 0.0 0 0 37523.6 23750 " />
<path d="M40458 22521
L39041 22521
" />
<path d="M39750 24273.6 A1023.62 1023.62 0.0 0 0 40473.8 22526.2 " />
<path d="M39026.2 22526.2 A1023.62 1023.62 0.0 0 0 39750 24273.6 " />
<path d="M34791 34978
L36208 34978
" />
<path d="M34585 34692 A1016.21 1016.21 0.0 0 0 34791.3 34978.3 " />
<path d="M35500 33226.4 A1023.62 1023.62 0.0 0 0 34572.3 33817.4 " />
<path d="M36427.7 33817.4 A1023.62 1023.62 0.0 0 0 35500 33226.4 " />
<path d="M36208.7 34978.3 A1016.21 1016.21 0.0 0 0 36415 34692 " />
<path d="M28580 31409
L25757 31409
" />
<path d="M28580 27622
L25757 27622
" />
<path d="M28580 31409
L28580 27622
" />
<path d="M25757 31409
L25757 27622
" />
<path d="M25757 30917
L23789 30917
" />
<path d="M25757 28114
L23789 28114
" />
<path d="M25757 30917
L25757 28114
" />
<path d="M23789 30917
L23789 28114
" />
<path d="M23789 30720
L19851 30720
" />
<path d="M23789 28311
L19851 28311
" />
<path d="M23789 30720
L23789 28311
" />
<path d="M19851 30720
L19851 28311
" />
<path d="M38840 19080
L38840 16257
" />
<path d="M42627 19080
L42627 16257
" />
<path d="M38840 19080
L42627 19080
" />
<path d="M38840 16257
L42627 16257
" />
<path d="M39332 16257
L39332 14289
" />
<path d="M42135 16257
L42135 14289
" />
<path d="M39332 16257
L42135 16257
" />
<path d="M39332 14289
L42135 14289
" />
<path d="M39529 14289
L39529 10351
" />
<path d="M41938 14289
L41938 10351
" />
<path d="M39529 14289
L41938 14289
" />
<path d="M39529 10351
L41938 10351
" />
</g> 
</svg>
