G04 #@! TF.FileFunction,Copper,L1,Top,Signal*
%FSLAX46Y46*%
G04 Gerber Fmt 4.6, Leading zero omitted, Abs format (unit mm)*
G04 Created by KiCad (PCBNEW 4.0.5) date 06/13/17 03:11:54*
%MOMM*%
%LPD*%
G01*
G04 APERTURE LIST*
%ADD10C,0.100000*%
%ADD11R,2.000000X2.000000*%
%ADD12O,2.000000X2.000000*%
%ADD13C,1.400000*%
%ADD14O,1.400000X1.400000*%
%ADD15R,2.400000X2.400000*%
%ADD16O,2.400000X2.400000*%
%ADD17R,2.800000X2.800000*%
%ADD18O,2.800000X2.800000*%
%ADD19C,1.000000*%
%ADD20R,1.000000X1.000000*%
%ADD21C,1.800000*%
%ADD22C,2.499360*%
%ADD23C,1.520000*%
%ADD24R,1.520000X1.520000*%
%ADD25C,0.250000*%
%ADD26C,0.254000*%
G04 APERTURE END LIST*
D10*
D11*
X74535000Y-54610000D03*
D12*
X89535000Y-54610000D03*
D13*
X125095000Y-60325000D03*
D14*
X125095000Y-67945000D03*
D11*
X125730000Y-92710000D03*
D12*
X110730000Y-92710000D03*
D15*
X66675000Y-64990000D03*
D16*
X66675000Y-46990000D03*
D15*
X119600000Y-86360000D03*
D16*
X101600000Y-86360000D03*
D15*
X114520000Y-76835000D03*
D16*
X96520000Y-76835000D03*
D11*
X65010000Y-91440000D03*
D12*
X80010000Y-91440000D03*
D11*
X85725000Y-59930000D03*
D12*
X85725000Y-74930000D03*
D11*
X86755000Y-48260000D03*
D12*
X71755000Y-48260000D03*
D11*
X127395000Y-48260000D03*
D12*
X112395000Y-48260000D03*
D11*
X125730000Y-55245000D03*
D12*
X140730000Y-55245000D03*
D17*
X133985000Y-83820000D03*
D18*
X133985000Y-71120000D03*
D17*
X142875000Y-71120000D03*
D18*
X142875000Y-83820000D03*
D17*
X131445000Y-48260000D03*
D18*
X144145000Y-48260000D03*
D17*
X143510000Y-90170000D03*
D18*
X130810000Y-90170000D03*
D17*
X142240000Y-60960000D03*
D18*
X129540000Y-60960000D03*
D17*
X127635000Y-73025000D03*
D18*
X127635000Y-85725000D03*
D19*
X116840000Y-59055000D03*
X115570000Y-60325000D03*
D20*
X115570000Y-57785000D03*
D19*
X107950000Y-67945000D03*
X106680000Y-66675000D03*
D20*
X109220000Y-66675000D03*
D19*
X109220000Y-59055000D03*
X107950000Y-60325000D03*
D20*
X107950000Y-57785000D03*
D13*
X122555000Y-74930000D03*
D14*
X122555000Y-82550000D03*
D13*
X118110000Y-64135000D03*
D14*
X118110000Y-71755000D03*
D13*
X80010000Y-79375000D03*
D14*
X80010000Y-71755000D03*
D13*
X80010000Y-59690000D03*
D14*
X80010000Y-67310000D03*
D13*
X83185000Y-79375000D03*
D14*
X90805000Y-79375000D03*
D13*
X92075000Y-67945000D03*
D14*
X92075000Y-75565000D03*
D13*
X113030000Y-64135000D03*
D14*
X113030000Y-71755000D03*
D13*
X136525000Y-66675000D03*
D14*
X128905000Y-66675000D03*
D13*
X103505000Y-66040000D03*
D14*
X95885000Y-66040000D03*
D13*
X94615000Y-53975000D03*
D14*
X102235000Y-53975000D03*
D13*
X121920000Y-60960000D03*
D14*
X121920000Y-53340000D03*
D13*
X103505000Y-70485000D03*
D14*
X95885000Y-70485000D03*
D13*
X106045000Y-53975000D03*
D14*
X113665000Y-53975000D03*
D13*
X118110000Y-74930000D03*
D14*
X118110000Y-82550000D03*
D13*
X95885000Y-90805000D03*
D14*
X95885000Y-83185000D03*
D21*
X84575000Y-91945000D03*
X92075000Y-93345000D03*
D19*
X93980000Y-60325000D03*
X92710000Y-61595000D03*
D20*
X92710000Y-59055000D03*
D19*
X100965000Y-60325000D03*
X99695000Y-59055000D03*
D20*
X102235000Y-59055000D03*
D22*
X105410000Y-92075000D03*
X102235000Y-92075000D03*
X99060000Y-92075000D03*
D23*
X90170000Y-84455000D03*
X92710000Y-86995000D03*
D24*
X87630000Y-86995000D03*
D21*
X70485000Y-77470000D03*
X70485000Y-74970000D03*
X70485000Y-72470000D03*
X100965000Y-46355000D03*
X103465000Y-46355000D03*
X105965000Y-46355000D03*
D25*
X118110000Y-71755000D02*
X119380000Y-71755000D01*
X119380000Y-71755000D02*
X122555000Y-74930000D01*
X122555000Y-74930000D02*
X129360001Y-81735001D01*
X129360001Y-81735001D02*
X129360001Y-87829999D01*
X125730000Y-91460000D02*
X125730000Y-92710000D01*
X129360001Y-87829999D02*
X125730000Y-91460000D01*
X92710000Y-86995000D02*
X92710000Y-88163000D01*
X92710000Y-88163000D02*
X94859999Y-90312999D01*
X92075000Y-93345000D02*
X92974999Y-92445001D01*
X92974999Y-92445001D02*
X93711999Y-92445001D01*
X93711999Y-92445001D02*
X94859999Y-91297001D01*
X80010000Y-91440000D02*
X82190011Y-93620011D01*
X85349401Y-93620011D02*
X86544999Y-92424413D01*
X82190011Y-93620011D02*
X85349401Y-93620011D01*
X86544999Y-92424413D02*
X86544999Y-85974999D01*
X86609999Y-85909999D02*
X91624999Y-85909999D01*
X86544999Y-85974999D02*
X86609999Y-85909999D01*
X91950001Y-86235001D02*
X92710000Y-86995000D01*
X91624999Y-85909999D02*
X91950001Y-86235001D01*
X101600000Y-86360000D02*
X98812998Y-86360000D01*
X98812998Y-86360000D02*
X94859999Y-90312999D01*
X94859999Y-90312999D02*
X94859999Y-91297001D01*
X94859999Y-91297001D02*
X95637998Y-92075000D01*
X95637998Y-92075000D02*
X97292686Y-92075000D01*
X97292686Y-92075000D02*
X99060000Y-92075000D01*
X105410000Y-92075000D02*
X110095000Y-92075000D01*
X110095000Y-92075000D02*
X110730000Y-92710000D01*
X102235000Y-92075000D02*
X105410000Y-92075000D01*
X99060000Y-92075000D02*
X102235000Y-92075000D01*
X95885000Y-83185000D02*
X99060000Y-86360000D01*
X99060000Y-86360000D02*
X101600000Y-86360000D01*
X90805000Y-79375000D02*
X92075000Y-79375000D01*
X92075000Y-79375000D02*
X95885000Y-83185000D01*
X110095000Y-93345000D02*
X110730000Y-92710000D01*
X90805000Y-79375000D02*
X91504999Y-78675001D01*
X91504999Y-78675001D02*
X93345000Y-76835000D01*
X92075000Y-75565000D02*
X93345000Y-76835000D01*
X93345000Y-76835000D02*
X96520000Y-76835000D01*
X95885000Y-70485000D02*
X95885000Y-71755000D01*
X95885000Y-71755000D02*
X92075000Y-75565000D01*
X95885000Y-66040000D02*
X95885000Y-67029949D01*
X95885000Y-67029949D02*
X95885000Y-70485000D01*
X66675000Y-64990000D02*
X66675000Y-68660000D01*
X66675000Y-68660000D02*
X70485000Y-72470000D01*
X80010000Y-59690000D02*
X70525000Y-59690000D01*
X70525000Y-59690000D02*
X66675000Y-63540000D01*
X66675000Y-63540000D02*
X66675000Y-64990000D01*
X92710000Y-61595000D02*
X81915000Y-61595000D01*
X81915000Y-61595000D02*
X80010000Y-59690000D01*
X114520000Y-76835000D02*
X112395000Y-76835000D01*
X112395000Y-76835000D02*
X110490000Y-74930000D01*
X110490000Y-74930000D02*
X110490000Y-66040000D01*
X110490000Y-66040000D02*
X111125000Y-66040000D01*
X111125000Y-66040000D02*
X113030000Y-64135000D01*
X114520000Y-76835000D02*
X115970000Y-76835000D01*
X115970000Y-76835000D02*
X119600000Y-80465000D01*
X119600000Y-80465000D02*
X119600000Y-84910000D01*
X119600000Y-84910000D02*
X119600000Y-86360000D01*
X113030000Y-64135000D02*
X118110000Y-64135000D01*
X107950000Y-57785000D02*
X107950000Y-59055000D01*
X107950000Y-59055000D02*
X113030000Y-64135000D01*
X107950000Y-57785000D02*
X115570000Y-57785000D01*
X69625500Y-88074500D02*
X71310500Y-88074500D01*
X71310500Y-88074500D02*
X80010000Y-79375000D01*
X66260000Y-91440000D02*
X69625500Y-88074500D01*
X123494681Y-96215319D02*
X71035319Y-96215319D01*
X71035319Y-96215319D02*
X66260000Y-91440000D01*
X66260000Y-91440000D02*
X65010000Y-91440000D01*
X123494681Y-96215319D02*
X123164362Y-95885000D01*
X123494681Y-94919681D02*
X123494681Y-96215319D01*
X123494681Y-94919681D02*
X122555000Y-93980000D01*
X122555000Y-93980000D02*
X122555000Y-82550000D01*
X85725000Y-59930000D02*
X92585000Y-59930000D01*
X92585000Y-59930000D02*
X92710000Y-59805000D01*
X92710000Y-59805000D02*
X92710000Y-59055000D01*
X94615000Y-53975000D02*
X92710000Y-55880000D01*
X92710000Y-55880000D02*
X92710000Y-59055000D01*
X85725000Y-74930000D02*
X85725000Y-76835000D01*
X85725000Y-76835000D02*
X83185000Y-79375000D01*
X80010000Y-67310000D02*
X80010000Y-69215000D01*
X80010000Y-69215000D02*
X85725000Y-74930000D01*
X105184999Y-44859999D02*
X105965000Y-45640000D01*
X105965000Y-45640000D02*
X105965000Y-46355000D01*
X86755000Y-48260000D02*
X86755000Y-47010000D01*
X86755000Y-47010000D02*
X88905001Y-44859999D01*
X88905001Y-44859999D02*
X105184999Y-44859999D01*
X100965000Y-57035000D02*
X100965000Y-51355000D01*
X100965000Y-51355000D02*
X105965000Y-46355000D01*
X102235000Y-59055000D02*
X102235000Y-58305000D01*
X102235000Y-58305000D02*
X100965000Y-57035000D01*
X109220000Y-66675000D02*
X109220000Y-65925000D01*
X109220000Y-65925000D02*
X102350000Y-59055000D01*
X102350000Y-59055000D02*
X102235000Y-59055000D01*
X71755000Y-48260000D02*
X76835000Y-53340000D01*
X92201501Y-58039499D02*
X92259990Y-57981010D01*
X76835000Y-53340000D02*
X76835000Y-57150000D01*
X95107001Y-52949999D02*
X95640001Y-53482999D01*
X95640001Y-53482999D02*
X95640001Y-58664999D01*
X76835000Y-57150000D02*
X77914999Y-58229999D01*
X77914999Y-58229999D02*
X92201501Y-58229999D01*
X92201501Y-58229999D02*
X92201501Y-58039499D01*
X92259991Y-55693599D02*
X93589999Y-54363591D01*
X94122999Y-52949999D02*
X95107001Y-52949999D01*
X92259990Y-57981010D02*
X92259991Y-55693599D01*
X93589999Y-54363591D02*
X93589999Y-53482999D01*
X93589999Y-53482999D02*
X94122999Y-52949999D01*
X92075000Y-67945000D02*
X92075000Y-63500000D01*
X92075000Y-63500000D02*
X92710000Y-63500000D01*
X92710000Y-63500000D02*
X93980000Y-62230000D01*
X93980000Y-62230000D02*
X93980000Y-60325000D01*
X100965000Y-60325000D02*
X100965000Y-59103998D01*
X100965000Y-59103998D02*
X100091001Y-58229999D01*
X100091001Y-58229999D02*
X96075001Y-58229999D01*
X96075001Y-58229999D02*
X95640001Y-58664999D01*
X93980000Y-60325000D02*
X95640001Y-58664999D01*
X113030000Y-71755000D02*
X114955020Y-69829980D01*
X114955020Y-69829980D02*
X122534980Y-69829980D01*
X122534980Y-69829980D02*
X123825000Y-71120000D01*
X123825000Y-71120000D02*
X130553590Y-71120000D01*
X130553590Y-71120000D02*
X134998590Y-66675000D01*
X134998590Y-66675000D02*
X135535051Y-66675000D01*
X135535051Y-66675000D02*
X136525000Y-66675000D01*
X113030000Y-71755000D02*
X117230001Y-75955001D01*
X117230001Y-75955001D02*
X118602001Y-75955001D01*
X118602001Y-75955001D02*
X119135001Y-75422001D01*
X119872001Y-70729999D02*
X124342013Y-75200011D01*
X119135001Y-75422001D02*
X119135001Y-74437999D01*
X116840000Y-72142998D02*
X116840000Y-71507998D01*
X124342013Y-75200011D02*
X133094401Y-75200011D01*
X119135001Y-74437999D02*
X116840000Y-72142998D01*
X116840000Y-71507998D02*
X117617999Y-70729999D01*
X138900029Y-69394383D02*
X138900029Y-61015029D01*
X138900029Y-61015029D02*
X127395000Y-49510000D01*
X117617999Y-70729999D02*
X119872001Y-70729999D01*
X133094401Y-75200011D02*
X138900029Y-69394383D01*
X127395000Y-49510000D02*
X127395000Y-48260000D01*
X125095000Y-60325000D02*
X128905000Y-60325000D01*
X128905000Y-60325000D02*
X129540000Y-60960000D01*
X125730000Y-55245000D02*
X125730000Y-59690000D01*
X125730000Y-59690000D02*
X125095000Y-60325000D01*
X121920000Y-53340000D02*
X123825000Y-55245000D01*
X123825000Y-55245000D02*
X125730000Y-55245000D01*
X112395000Y-48260000D02*
X117475000Y-53340000D01*
X117475000Y-53340000D02*
X121920000Y-53340000D01*
X112395000Y-48260000D02*
X110980787Y-48260000D01*
X110980787Y-48260000D02*
X110490788Y-48749999D01*
X110490788Y-48749999D02*
X107460001Y-48749999D01*
X89535000Y-54610000D02*
X85429999Y-50504999D01*
X85429999Y-50504999D02*
X85429999Y-46999999D01*
X107460001Y-48749999D02*
X102934999Y-53275001D01*
X85429999Y-46999999D02*
X88020008Y-44409990D01*
X106232592Y-44409990D02*
X107460001Y-45637399D01*
X88020008Y-44409990D02*
X106232592Y-44409990D01*
X107460001Y-45637399D02*
X107460001Y-48749999D01*
X102934999Y-53275001D02*
X102235000Y-53975000D01*
X86360000Y-82700002D02*
X86360000Y-76200000D01*
X85800001Y-83260001D02*
X86360000Y-82700002D01*
X85163001Y-93170001D02*
X85800001Y-92533001D01*
X85800001Y-92533001D02*
X85800001Y-83260001D01*
X78684999Y-92076001D02*
X81280000Y-94671002D01*
X81280000Y-94671002D02*
X81528678Y-94919680D01*
X81280000Y-95765309D02*
X81280000Y-94671002D01*
X122039691Y-95765309D02*
X81280000Y-95765309D01*
X122250320Y-94919680D02*
X122250320Y-95554680D01*
X122250320Y-95554680D02*
X122039691Y-95765309D01*
X133926401Y-81548601D02*
X133926401Y-75004421D01*
X133926401Y-75004421D02*
X139730001Y-69200821D01*
X139730001Y-69200821D02*
X139730001Y-56244999D01*
X139730001Y-56244999D02*
X140730000Y-55245000D01*
X107124999Y-67501411D02*
X107505001Y-67121409D01*
X107505001Y-67121409D02*
X107505001Y-66278999D01*
X95885000Y-90805000D02*
X97155000Y-89535000D01*
X124469999Y-94035001D02*
X126990001Y-94035001D01*
X100512987Y-64564989D02*
X95206599Y-64564989D01*
X95206599Y-64564989D02*
X94409990Y-65361598D01*
X97155000Y-89535000D02*
X104775000Y-89535000D01*
X94409989Y-67127013D02*
X87932003Y-73604999D01*
X104775000Y-89535000D02*
X107124999Y-87185001D01*
X122104990Y-83820000D02*
X121529999Y-83245009D01*
X122250320Y-94919680D02*
X122554295Y-94615705D01*
X124404999Y-82053589D02*
X124404999Y-93970001D01*
X107124999Y-87185001D02*
X107124999Y-67501411D01*
X121529999Y-83245009D02*
X121529999Y-82057999D01*
X107505001Y-66278999D02*
X107076001Y-65849999D01*
X105068997Y-67065001D02*
X103012999Y-67065001D01*
X126990001Y-94035001D02*
X127055001Y-93970001D01*
X107076001Y-65849999D02*
X106283999Y-65849999D01*
X106283999Y-65849999D02*
X105068997Y-67065001D01*
X103012999Y-67065001D02*
X100512987Y-64564989D01*
X122554295Y-94615705D02*
X122104990Y-94166400D01*
X94409990Y-65361598D02*
X94409989Y-67127013D01*
X87932003Y-73604999D02*
X87050001Y-73604999D01*
X87050001Y-73604999D02*
X87050001Y-75566001D01*
X78684999Y-89590001D02*
X78684999Y-92076001D01*
X87050001Y-75566001D02*
X86361001Y-76255001D01*
X85163001Y-93170001D02*
X83986999Y-93170001D01*
X83986999Y-93170001D02*
X80406999Y-89590001D01*
X80406999Y-89590001D02*
X78684999Y-89590001D01*
X122104990Y-94166400D02*
X122104990Y-83820000D01*
X129810011Y-81548601D02*
X133926401Y-81548601D01*
X121529999Y-82057999D02*
X122062999Y-81524999D01*
X122062999Y-81524999D02*
X123876409Y-81524999D01*
X123876409Y-81524999D02*
X124404999Y-82053589D01*
X124404999Y-93970001D02*
X124469999Y-94035001D01*
X127055001Y-93970001D02*
X127055001Y-91449999D01*
X127055001Y-91449999D02*
X129810011Y-88694989D01*
X129810011Y-88694989D02*
X129810011Y-81548601D01*
X65151000Y-80962500D02*
X76905498Y-80962500D01*
X76905498Y-80962500D02*
X79517999Y-78349999D01*
X79517999Y-78349999D02*
X80502001Y-78349999D01*
X80502001Y-78349999D02*
X84575000Y-82422998D01*
X84575000Y-82422998D02*
X84575000Y-90672208D01*
X84575000Y-90672208D02*
X84575000Y-91945000D01*
X65151000Y-77660500D02*
X65151000Y-80962500D01*
X65149999Y-77659499D02*
X65151000Y-77660500D01*
X74535000Y-54610000D02*
X73285000Y-54610000D01*
X73285000Y-54610000D02*
X65149999Y-62745001D01*
X65149999Y-62745001D02*
X65149999Y-77659499D01*
X135635000Y-83820000D02*
X142875000Y-83820000D01*
X133985000Y-83820000D02*
X135635000Y-83820000D01*
X123825000Y-61347998D02*
X123825000Y-67208000D01*
X123825000Y-67208000D02*
X124069999Y-67452999D01*
X116840000Y-59055000D02*
X121532002Y-59055000D01*
X121532002Y-59055000D02*
X123825000Y-61347998D01*
X137203401Y-68150011D02*
X136954989Y-68150011D01*
X136954989Y-68150011D02*
X133985000Y-71120000D01*
X128905000Y-66675000D02*
X126609999Y-68970001D01*
X124069999Y-68437001D02*
X124069999Y-67452999D01*
X126609999Y-68970001D02*
X124602999Y-68970001D01*
X124602999Y-68970001D02*
X124069999Y-68437001D01*
X124069999Y-67452999D02*
X126323009Y-65199989D01*
X126323009Y-65199989D02*
X137203402Y-65199990D01*
X137203402Y-65199990D02*
X138000011Y-65996599D01*
X138000011Y-65996599D02*
X138000010Y-67353402D01*
X138000010Y-67353402D02*
X137203401Y-68150011D01*
X142875000Y-71120000D02*
X142875000Y-74474999D01*
X142875000Y-74474999D02*
X135255000Y-82094999D01*
X135255000Y-82094999D02*
X132324999Y-82094999D01*
X132324999Y-82094999D02*
X130810000Y-83609998D01*
X130810000Y-83609998D02*
X130810000Y-88190102D01*
X130810000Y-88190102D02*
X130810000Y-90170000D01*
X144145000Y-48260000D02*
X142745001Y-49659999D01*
X142745001Y-49659999D02*
X142745001Y-57069997D01*
X142745001Y-57069997D02*
X140514999Y-59299999D01*
X140514999Y-59299999D02*
X140514999Y-67109999D01*
X140514999Y-67109999D02*
X142875000Y-69470000D01*
X142875000Y-69470000D02*
X142875000Y-71120000D01*
X131445000Y-48260000D02*
X131445000Y-46610000D01*
X131445000Y-46610000D02*
X128794980Y-43959980D01*
X84979989Y-46813599D02*
X84979989Y-52015991D01*
X128794980Y-43959980D02*
X87833607Y-43959981D01*
X87833607Y-43959981D02*
X84979989Y-46813599D01*
X84979989Y-52015991D02*
X88898999Y-55935001D01*
X88898999Y-55935001D02*
X90501587Y-55935001D01*
X90501587Y-55935001D02*
X98856587Y-47580001D01*
X98856587Y-47580001D02*
X102239999Y-47580001D01*
X102239999Y-47580001D02*
X102565001Y-47254999D01*
X102565001Y-47254999D02*
X103465000Y-46355000D01*
X145415000Y-87630000D02*
X144400000Y-87630000D01*
X144400000Y-87630000D02*
X143510000Y-88520000D01*
X143510000Y-88520000D02*
X143510000Y-90170000D01*
X145415000Y-62485000D02*
X145415000Y-87630000D01*
X142240000Y-60960000D02*
X143890000Y-60960000D01*
X143890000Y-60960000D02*
X145415000Y-62485000D01*
X143510000Y-62230000D02*
X142240000Y-60960000D01*
X128412999Y-65649999D02*
X131445000Y-65649999D01*
X131445000Y-65649999D02*
X137017001Y-65649999D01*
X114299295Y-73660705D02*
X113418703Y-73660705D01*
X107950000Y-67945000D02*
X107950000Y-73250002D01*
X107950000Y-73250002D02*
X115570000Y-80870002D01*
X121125001Y-87789999D02*
X121125001Y-84930001D01*
X115570000Y-80870002D02*
X117947004Y-80870002D01*
X117947004Y-80870002D02*
X119135001Y-82057999D01*
X119135001Y-82057999D02*
X119135001Y-83042001D01*
X119135001Y-83042001D02*
X118074999Y-84102003D01*
X118074999Y-84102003D02*
X118074999Y-87820001D01*
X120629980Y-79991390D02*
X114299295Y-73660705D01*
X118074999Y-87820001D02*
X118139999Y-87885001D01*
X120629980Y-84434980D02*
X120629980Y-79991390D01*
X121125001Y-84930001D02*
X120629980Y-84434980D01*
X118139999Y-87885001D02*
X121029999Y-87885001D01*
X121029999Y-87885001D02*
X121125001Y-87789999D01*
X113418703Y-73660705D02*
X112004999Y-72247001D01*
X112004999Y-72247001D02*
X112004999Y-70013613D01*
X112004999Y-70013613D02*
X112638641Y-69379971D01*
X112638641Y-69379971D02*
X122721381Y-69379971D01*
X122721381Y-69379971D02*
X124011400Y-70669990D01*
X124011400Y-70669990D02*
X126425009Y-70669990D01*
X126425009Y-70669990D02*
X131445000Y-65649999D01*
X134609999Y-67700001D02*
X137017001Y-67700001D01*
X127635000Y-73025000D02*
X129285000Y-73025000D01*
X129285000Y-73025000D02*
X134609999Y-67700001D01*
X125095000Y-67945000D02*
X125794999Y-67245001D01*
X125794999Y-67245001D02*
X127570001Y-67245001D01*
X137550001Y-67167001D02*
X137017001Y-67700001D01*
X127570001Y-67245001D02*
X127570001Y-66492997D01*
X127570001Y-66492997D02*
X128412999Y-65649999D01*
X137550001Y-66182999D02*
X137550001Y-67167001D01*
X137017001Y-65649999D02*
X137550001Y-66182999D01*
X87630000Y-86995000D02*
X87630000Y-90713002D01*
X87630000Y-90713002D02*
X92166998Y-95250000D01*
X92166998Y-95250000D02*
X111125000Y-95250000D01*
X111125000Y-95250000D02*
X111704999Y-94670001D01*
X111704999Y-94670001D02*
X111704999Y-94035001D01*
X121654980Y-84006400D02*
X121079989Y-83431409D01*
X121079989Y-83431409D02*
X121079990Y-81871598D01*
X121079990Y-81871598D02*
X124211588Y-78740000D01*
X124211588Y-78740000D02*
X125095000Y-78740000D01*
X121654980Y-93980000D02*
X121654980Y-84006400D01*
X121392182Y-93980000D02*
X121654980Y-93980000D01*
X111704999Y-94035001D02*
X121337181Y-94035001D01*
X121337181Y-94035001D02*
X121392182Y-93980000D01*
X118110000Y-82550000D02*
X117410001Y-83249999D01*
X117410001Y-83249999D02*
X117410001Y-87991001D01*
X117410001Y-87991001D02*
X111704999Y-93696003D01*
X111704999Y-93696003D02*
X111704999Y-94035001D01*
X127635000Y-81280000D02*
X127635000Y-85725000D01*
X125095000Y-78740000D02*
X127635000Y-81280000D01*
X115570000Y-60325000D02*
X121285000Y-60325000D01*
X121285000Y-60325000D02*
X121920000Y-60960000D01*
X115570000Y-60325000D02*
X110490000Y-60325000D01*
X110490000Y-60325000D02*
X109220000Y-59055000D01*
X90170000Y-84455000D02*
X90170000Y-83380198D01*
X90170000Y-83380198D02*
X88900000Y-82110198D01*
X88900000Y-82110198D02*
X88900000Y-73558000D01*
X103505000Y-70485000D02*
X106680000Y-67310000D01*
X106680000Y-67310000D02*
X106680000Y-66675000D01*
X88900000Y-73558000D02*
X94859999Y-67598001D01*
X94859999Y-67598001D02*
X94859999Y-65547999D01*
X94859999Y-65547999D02*
X95392999Y-65014999D01*
X98034999Y-65014999D02*
X102805001Y-69785001D01*
X95392999Y-65014999D02*
X98034999Y-65014999D01*
X102805001Y-69785001D02*
X103505000Y-70485000D01*
X107950000Y-60325000D02*
X106045000Y-58420000D01*
X106045000Y-58420000D02*
X106045000Y-53975000D01*
X80010000Y-71755000D02*
X79020051Y-71755000D01*
X79020051Y-71755000D02*
X75805051Y-74970000D01*
X75805051Y-74970000D02*
X71757792Y-74970000D01*
X71757792Y-74970000D02*
X70485000Y-74970000D01*
X103505000Y-66040000D02*
X99695000Y-62230000D01*
X99695000Y-62230000D02*
X99695000Y-59055000D01*
X118110000Y-74930000D02*
X114935000Y-71755000D01*
X114935000Y-71755000D02*
X114935000Y-71120000D01*
X125974999Y-74750001D02*
X132908001Y-74750001D01*
X138450020Y-69207982D02*
X138450020Y-65810200D01*
X114935000Y-71120000D02*
X116591588Y-71120000D01*
X116591588Y-71120000D02*
X117431599Y-70279989D01*
X117088412Y-53975000D02*
X113665000Y-53975000D01*
X117431599Y-70279989D02*
X121504987Y-70279989D01*
X121504987Y-70279989D02*
X125974999Y-74750001D01*
X132908001Y-74750001D02*
X138450020Y-69207982D01*
X138450020Y-65810200D02*
X137389803Y-64749981D01*
X137389803Y-64749981D02*
X127863393Y-64749981D01*
X127863393Y-64749981D02*
X117088412Y-53975000D01*
X117410001Y-74230001D02*
X118110000Y-74930000D01*
D26*
G36*
X86618110Y-88351431D02*
X86870000Y-88402440D01*
X86870000Y-90713002D01*
X86927852Y-91003841D01*
X87092599Y-91250403D01*
X90847505Y-95005309D01*
X82271645Y-95005309D01*
X82288678Y-94919680D01*
X82230826Y-94628841D01*
X82066079Y-94382279D01*
X80612001Y-92928201D01*
X80969994Y-92763505D01*
X81403402Y-92295385D01*
X81589143Y-91846947D01*
X83449598Y-93707402D01*
X83696160Y-93872149D01*
X83986999Y-93930001D01*
X85163001Y-93930001D01*
X85453840Y-93872149D01*
X85700402Y-93707402D01*
X86337402Y-93070402D01*
X86502149Y-92823840D01*
X86560001Y-92533001D01*
X86560001Y-88311727D01*
X86618110Y-88351431D01*
X86618110Y-88351431D01*
G37*
X86618110Y-88351431D02*
X86870000Y-88402440D01*
X86870000Y-90713002D01*
X86927852Y-91003841D01*
X87092599Y-91250403D01*
X90847505Y-95005309D01*
X82271645Y-95005309D01*
X82288678Y-94919680D01*
X82230826Y-94628841D01*
X82066079Y-94382279D01*
X80612001Y-92928201D01*
X80969994Y-92763505D01*
X81403402Y-92295385D01*
X81589143Y-91846947D01*
X83449598Y-93707402D01*
X83696160Y-93872149D01*
X83986999Y-93930001D01*
X85163001Y-93930001D01*
X85453840Y-93872149D01*
X85700402Y-93707402D01*
X86337402Y-93070402D01*
X86502149Y-92823840D01*
X86560001Y-92533001D01*
X86560001Y-88311727D01*
X86618110Y-88351431D01*
G36*
X102170226Y-70225028D02*
X102169769Y-70749383D01*
X102372582Y-71240229D01*
X102747796Y-71616098D01*
X103238287Y-71819768D01*
X103769383Y-71820231D01*
X104260229Y-71617418D01*
X104636098Y-71242204D01*
X104839768Y-70751713D01*
X104840228Y-70224574D01*
X106364999Y-68699803D01*
X106364999Y-86870199D01*
X104460198Y-88775000D01*
X97155000Y-88775000D01*
X96864160Y-88832852D01*
X96617599Y-88997599D01*
X96144972Y-89470226D01*
X95620617Y-89469769D01*
X95129771Y-89672582D01*
X94753902Y-90047796D01*
X94550232Y-90538287D01*
X94549769Y-91069383D01*
X94752582Y-91560229D01*
X95127796Y-91936098D01*
X95618287Y-92139768D01*
X96149383Y-92140231D01*
X96640229Y-91937418D01*
X96827089Y-91750883D01*
X97165929Y-91750883D01*
X97186072Y-92500384D01*
X97434141Y-93099275D01*
X97726911Y-93228483D01*
X98880395Y-92075000D01*
X99239605Y-92075000D01*
X100393089Y-93228483D01*
X100647500Y-93116204D01*
X100901911Y-93228483D01*
X102055395Y-92075000D01*
X102414605Y-92075000D01*
X103568089Y-93228483D01*
X103822500Y-93116204D01*
X104076911Y-93228483D01*
X105230395Y-92075000D01*
X105589605Y-92075000D01*
X106743089Y-93228483D01*
X107035859Y-93099275D01*
X107039245Y-93090434D01*
X109139876Y-93090434D01*
X109336598Y-93565385D01*
X109770006Y-94033505D01*
X110349565Y-94300133D01*
X110603000Y-94181319D01*
X110603000Y-92837000D01*
X109259223Y-92837000D01*
X109139876Y-93090434D01*
X107039245Y-93090434D01*
X107304071Y-92399117D01*
X107302202Y-92329566D01*
X109139876Y-92329566D01*
X109259223Y-92583000D01*
X110603000Y-92583000D01*
X110603000Y-91238681D01*
X110349565Y-91119867D01*
X109770006Y-91386495D01*
X109336598Y-91854615D01*
X109139876Y-92329566D01*
X107302202Y-92329566D01*
X107283928Y-91649616D01*
X107035859Y-91050725D01*
X106743089Y-90921517D01*
X105589605Y-92075000D01*
X105230395Y-92075000D01*
X104076911Y-90921517D01*
X103822500Y-91033796D01*
X103568089Y-90921517D01*
X102414605Y-92075000D01*
X102055395Y-92075000D01*
X100901911Y-90921517D01*
X100647500Y-91033796D01*
X100393089Y-90921517D01*
X99239605Y-92075000D01*
X98880395Y-92075000D01*
X97726911Y-90921517D01*
X97434141Y-91050725D01*
X97165929Y-91750883D01*
X96827089Y-91750883D01*
X97016098Y-91562204D01*
X97219768Y-91071713D01*
X97220228Y-90544574D01*
X97469802Y-90295000D01*
X98407854Y-90295000D01*
X98035725Y-90449141D01*
X97906517Y-90741911D01*
X99060000Y-91895395D01*
X100213483Y-90741911D01*
X100084275Y-90449141D01*
X99681895Y-90295000D01*
X101582854Y-90295000D01*
X101210725Y-90449141D01*
X101081517Y-90741911D01*
X102235000Y-91895395D01*
X103388483Y-90741911D01*
X103259275Y-90449141D01*
X102856895Y-90295000D01*
X104757854Y-90295000D01*
X104385725Y-90449141D01*
X104256517Y-90741911D01*
X105410000Y-91895395D01*
X106563483Y-90741911D01*
X106434275Y-90449141D01*
X105734117Y-90180929D01*
X105125497Y-90197286D01*
X105312401Y-90072401D01*
X107662400Y-87722402D01*
X107827147Y-87475841D01*
X107847732Y-87372352D01*
X107884999Y-87185001D01*
X107884999Y-74259803D01*
X115032599Y-81407403D01*
X115279160Y-81572150D01*
X115570000Y-81630002D01*
X117132507Y-81630002D01*
X116876621Y-82012964D01*
X116775000Y-82523846D01*
X116775000Y-82576154D01*
X116818304Y-82793858D01*
X116707853Y-82959160D01*
X116650001Y-83249999D01*
X116650001Y-87676199D01*
X112225379Y-92100821D01*
X112123402Y-91854615D01*
X111689994Y-91386495D01*
X111110435Y-91119867D01*
X110857000Y-91238681D01*
X110857000Y-92583000D01*
X110877000Y-92583000D01*
X110877000Y-92837000D01*
X110857000Y-92837000D01*
X110857000Y-94181319D01*
X110944999Y-94222574D01*
X110944999Y-94355199D01*
X110810198Y-94490000D01*
X92953710Y-94490000D01*
X92975554Y-94425159D01*
X92075000Y-93524605D01*
X92060858Y-93538748D01*
X91881253Y-93359143D01*
X91895395Y-93345000D01*
X92254605Y-93345000D01*
X93155159Y-94245554D01*
X93411643Y-94159148D01*
X93621458Y-93585664D01*
X93614002Y-93408089D01*
X97906517Y-93408089D01*
X98035725Y-93700859D01*
X98735883Y-93969071D01*
X99485384Y-93948928D01*
X100084275Y-93700859D01*
X100213483Y-93408089D01*
X101081517Y-93408089D01*
X101210725Y-93700859D01*
X101910883Y-93969071D01*
X102660384Y-93948928D01*
X103259275Y-93700859D01*
X103388483Y-93408089D01*
X104256517Y-93408089D01*
X104385725Y-93700859D01*
X105085883Y-93969071D01*
X105835384Y-93948928D01*
X106434275Y-93700859D01*
X106563483Y-93408089D01*
X105410000Y-92254605D01*
X104256517Y-93408089D01*
X103388483Y-93408089D01*
X102235000Y-92254605D01*
X101081517Y-93408089D01*
X100213483Y-93408089D01*
X99060000Y-92254605D01*
X97906517Y-93408089D01*
X93614002Y-93408089D01*
X93595839Y-92975540D01*
X93411643Y-92530852D01*
X93155159Y-92444446D01*
X92254605Y-93345000D01*
X91895395Y-93345000D01*
X90994841Y-92444446D01*
X90738357Y-92530852D01*
X90680578Y-92688778D01*
X90256641Y-92264841D01*
X91174446Y-92264841D01*
X92075000Y-93165395D01*
X92975554Y-92264841D01*
X92889148Y-92008357D01*
X92315664Y-91798542D01*
X91705540Y-91824161D01*
X91260852Y-92008357D01*
X91174446Y-92264841D01*
X90256641Y-92264841D01*
X88390000Y-90398200D01*
X88390000Y-88402440D01*
X88625317Y-88358162D01*
X88841441Y-88219090D01*
X88986431Y-88006890D01*
X88993139Y-87973764D01*
X91910841Y-87973764D01*
X91980059Y-88215742D01*
X92502780Y-88402155D01*
X93057049Y-88374341D01*
X93439941Y-88215742D01*
X93509159Y-87973764D01*
X92710000Y-87174605D01*
X91910841Y-87973764D01*
X88993139Y-87973764D01*
X89037440Y-87755000D01*
X89037440Y-86787780D01*
X91302845Y-86787780D01*
X91330659Y-87342049D01*
X91489258Y-87724941D01*
X91731236Y-87794159D01*
X92530395Y-86995000D01*
X92889605Y-86995000D01*
X93688764Y-87794159D01*
X93930742Y-87724941D01*
X94117155Y-87202220D01*
X94095557Y-86771805D01*
X99811805Y-86771805D01*
X100044358Y-87333258D01*
X100535224Y-87854492D01*
X101188193Y-88148203D01*
X101473000Y-88031858D01*
X101473000Y-86487000D01*
X101727000Y-86487000D01*
X101727000Y-88031858D01*
X102011807Y-88148203D01*
X102664776Y-87854492D01*
X103155642Y-87333258D01*
X103388195Y-86771805D01*
X103271432Y-86487000D01*
X101727000Y-86487000D01*
X101473000Y-86487000D01*
X99928568Y-86487000D01*
X99811805Y-86771805D01*
X94095557Y-86771805D01*
X94089341Y-86647951D01*
X93930742Y-86265059D01*
X93688764Y-86195841D01*
X92889605Y-86995000D01*
X92530395Y-86995000D01*
X91731236Y-86195841D01*
X91489258Y-86265059D01*
X91302845Y-86787780D01*
X89037440Y-86787780D01*
X89037440Y-86235000D01*
X88996277Y-86016236D01*
X91910841Y-86016236D01*
X92710000Y-86815395D01*
X93509159Y-86016236D01*
X93489696Y-85948195D01*
X99811805Y-85948195D01*
X99928568Y-86233000D01*
X101473000Y-86233000D01*
X101473000Y-84688142D01*
X101727000Y-84688142D01*
X101727000Y-86233000D01*
X103271432Y-86233000D01*
X103388195Y-85948195D01*
X103155642Y-85386742D01*
X102664776Y-84865508D01*
X102011807Y-84571797D01*
X101727000Y-84688142D01*
X101473000Y-84688142D01*
X101188193Y-84571797D01*
X100535224Y-84865508D01*
X100044358Y-85386742D01*
X99811805Y-85948195D01*
X93489696Y-85948195D01*
X93439941Y-85774258D01*
X92917220Y-85587845D01*
X92362951Y-85615659D01*
X91980059Y-85774258D01*
X91910841Y-86016236D01*
X88996277Y-86016236D01*
X88993162Y-85999683D01*
X88854090Y-85783559D01*
X88641890Y-85638569D01*
X88390000Y-85587560D01*
X86870000Y-85587560D01*
X86634683Y-85631838D01*
X86560001Y-85679895D01*
X86560001Y-83574803D01*
X86897401Y-83237403D01*
X87062148Y-82990842D01*
X87120000Y-82700002D01*
X87120000Y-76570804D01*
X87587402Y-76103402D01*
X87752149Y-75856840D01*
X87810001Y-75566001D01*
X87810001Y-74364999D01*
X87932003Y-74364999D01*
X88140000Y-74323625D01*
X88140000Y-82110198D01*
X88197852Y-82401037D01*
X88362599Y-82647599D01*
X89183585Y-83468585D01*
X88988066Y-83663764D01*
X88775242Y-84176300D01*
X88774758Y-84731265D01*
X88986687Y-85244172D01*
X89378764Y-85636934D01*
X89891300Y-85849758D01*
X90446265Y-85850242D01*
X90959172Y-85638313D01*
X91351934Y-85246236D01*
X91564758Y-84733700D01*
X91565242Y-84178735D01*
X91353313Y-83665828D01*
X91206074Y-83518331D01*
X94592273Y-83518331D01*
X94818236Y-83987663D01*
X95206604Y-84334797D01*
X95551671Y-84477716D01*
X95758000Y-84354374D01*
X95758000Y-83312000D01*
X96012000Y-83312000D01*
X96012000Y-84354374D01*
X96218329Y-84477716D01*
X96563396Y-84334797D01*
X96951764Y-83987663D01*
X97177727Y-83518331D01*
X97055206Y-83312000D01*
X96012000Y-83312000D01*
X95758000Y-83312000D01*
X94714794Y-83312000D01*
X94592273Y-83518331D01*
X91206074Y-83518331D01*
X90961236Y-83273066D01*
X90903959Y-83249283D01*
X90872148Y-83089358D01*
X90713330Y-82851669D01*
X94592273Y-82851669D01*
X94714794Y-83058000D01*
X95758000Y-83058000D01*
X95758000Y-82015626D01*
X96012000Y-82015626D01*
X96012000Y-83058000D01*
X97055206Y-83058000D01*
X97177727Y-82851669D01*
X96951764Y-82382337D01*
X96563396Y-82035203D01*
X96218329Y-81892284D01*
X96012000Y-82015626D01*
X95758000Y-82015626D01*
X95551671Y-81892284D01*
X95206604Y-82035203D01*
X94818236Y-82382337D01*
X94592273Y-82851669D01*
X90713330Y-82851669D01*
X90707401Y-82842797D01*
X89660000Y-81795396D01*
X89660000Y-80058763D01*
X90002337Y-80441764D01*
X90471669Y-80667727D01*
X90678000Y-80545206D01*
X90678000Y-79502000D01*
X90932000Y-79502000D01*
X90932000Y-80545206D01*
X91138331Y-80667727D01*
X91607663Y-80441764D01*
X91954797Y-80053396D01*
X92097716Y-79708329D01*
X91974374Y-79502000D01*
X90932000Y-79502000D01*
X90678000Y-79502000D01*
X90658000Y-79502000D01*
X90658000Y-79248000D01*
X90678000Y-79248000D01*
X90678000Y-78204794D01*
X90932000Y-78204794D01*
X90932000Y-79248000D01*
X91974374Y-79248000D01*
X92097716Y-79041671D01*
X91954797Y-78696604D01*
X91607663Y-78308236D01*
X91138331Y-78082273D01*
X90932000Y-78204794D01*
X90678000Y-78204794D01*
X90471669Y-78082273D01*
X90002337Y-78308236D01*
X89660000Y-78691237D01*
X89660000Y-77246805D01*
X94731805Y-77246805D01*
X94964358Y-77808258D01*
X95455224Y-78329492D01*
X96108193Y-78623203D01*
X96393000Y-78506858D01*
X96393000Y-76962000D01*
X96647000Y-76962000D01*
X96647000Y-78506858D01*
X96931807Y-78623203D01*
X97584776Y-78329492D01*
X98075642Y-77808258D01*
X98308195Y-77246805D01*
X98191432Y-76962000D01*
X96647000Y-76962000D01*
X96393000Y-76962000D01*
X94848568Y-76962000D01*
X94731805Y-77246805D01*
X89660000Y-77246805D01*
X89660000Y-75898331D01*
X90782273Y-75898331D01*
X91008236Y-76367663D01*
X91396604Y-76714797D01*
X91741671Y-76857716D01*
X91948000Y-76734374D01*
X91948000Y-75692000D01*
X92202000Y-75692000D01*
X92202000Y-76734374D01*
X92408329Y-76857716D01*
X92753396Y-76714797D01*
X93079635Y-76423195D01*
X94731805Y-76423195D01*
X94848568Y-76708000D01*
X96393000Y-76708000D01*
X96393000Y-75163142D01*
X96647000Y-75163142D01*
X96647000Y-76708000D01*
X98191432Y-76708000D01*
X98308195Y-76423195D01*
X98075642Y-75861742D01*
X97584776Y-75340508D01*
X96931807Y-75046797D01*
X96647000Y-75163142D01*
X96393000Y-75163142D01*
X96108193Y-75046797D01*
X95455224Y-75340508D01*
X94964358Y-75861742D01*
X94731805Y-76423195D01*
X93079635Y-76423195D01*
X93141764Y-76367663D01*
X93367727Y-75898331D01*
X93245206Y-75692000D01*
X92202000Y-75692000D01*
X91948000Y-75692000D01*
X90904794Y-75692000D01*
X90782273Y-75898331D01*
X89660000Y-75898331D01*
X89660000Y-75231669D01*
X90782273Y-75231669D01*
X90904794Y-75438000D01*
X91948000Y-75438000D01*
X91948000Y-74395626D01*
X92202000Y-74395626D01*
X92202000Y-75438000D01*
X93245206Y-75438000D01*
X93367727Y-75231669D01*
X93141764Y-74762337D01*
X92753396Y-74415203D01*
X92408329Y-74272284D01*
X92202000Y-74395626D01*
X91948000Y-74395626D01*
X91741671Y-74272284D01*
X91396604Y-74415203D01*
X91008236Y-74762337D01*
X90782273Y-75231669D01*
X89660000Y-75231669D01*
X89660000Y-73872802D01*
X92714473Y-70818329D01*
X94592284Y-70818329D01*
X94735203Y-71163396D01*
X95082337Y-71551764D01*
X95551669Y-71777727D01*
X95758000Y-71655206D01*
X95758000Y-70612000D01*
X96012000Y-70612000D01*
X96012000Y-71655206D01*
X96218331Y-71777727D01*
X96687663Y-71551764D01*
X97034797Y-71163396D01*
X97177716Y-70818329D01*
X97054374Y-70612000D01*
X96012000Y-70612000D01*
X95758000Y-70612000D01*
X94715626Y-70612000D01*
X94592284Y-70818329D01*
X92714473Y-70818329D01*
X93381131Y-70151671D01*
X94592284Y-70151671D01*
X94715626Y-70358000D01*
X95758000Y-70358000D01*
X95758000Y-69314794D01*
X96012000Y-69314794D01*
X96012000Y-70358000D01*
X97054374Y-70358000D01*
X97177716Y-70151671D01*
X97034797Y-69806604D01*
X96687663Y-69418236D01*
X96218331Y-69192273D01*
X96012000Y-69314794D01*
X95758000Y-69314794D01*
X95551669Y-69192273D01*
X95082337Y-69418236D01*
X94735203Y-69806604D01*
X94592284Y-70151671D01*
X93381131Y-70151671D01*
X95397400Y-68135402D01*
X95562147Y-67888841D01*
X95577790Y-67810197D01*
X95619999Y-67598001D01*
X95619999Y-67292152D01*
X95758000Y-67210206D01*
X95758000Y-66167000D01*
X96012000Y-66167000D01*
X96012000Y-67210206D01*
X96218331Y-67332727D01*
X96687663Y-67106764D01*
X97034797Y-66718396D01*
X97177716Y-66373329D01*
X97054374Y-66167000D01*
X96012000Y-66167000D01*
X95758000Y-66167000D01*
X95738000Y-66167000D01*
X95738000Y-65913000D01*
X95758000Y-65913000D01*
X95758000Y-65893000D01*
X96012000Y-65893000D01*
X96012000Y-65913000D01*
X97054374Y-65913000D01*
X97136870Y-65774999D01*
X97720197Y-65774999D01*
X102170226Y-70225028D01*
X102170226Y-70225028D01*
G37*
X102170226Y-70225028D02*
X102169769Y-70749383D01*
X102372582Y-71240229D01*
X102747796Y-71616098D01*
X103238287Y-71819768D01*
X103769383Y-71820231D01*
X104260229Y-71617418D01*
X104636098Y-71242204D01*
X104839768Y-70751713D01*
X104840228Y-70224574D01*
X106364999Y-68699803D01*
X106364999Y-86870199D01*
X104460198Y-88775000D01*
X97155000Y-88775000D01*
X96864160Y-88832852D01*
X96617599Y-88997599D01*
X96144972Y-89470226D01*
X95620617Y-89469769D01*
X95129771Y-89672582D01*
X94753902Y-90047796D01*
X94550232Y-90538287D01*
X94549769Y-91069383D01*
X94752582Y-91560229D01*
X95127796Y-91936098D01*
X95618287Y-92139768D01*
X96149383Y-92140231D01*
X96640229Y-91937418D01*
X96827089Y-91750883D01*
X97165929Y-91750883D01*
X97186072Y-92500384D01*
X97434141Y-93099275D01*
X97726911Y-93228483D01*
X98880395Y-92075000D01*
X99239605Y-92075000D01*
X100393089Y-93228483D01*
X100647500Y-93116204D01*
X100901911Y-93228483D01*
X102055395Y-92075000D01*
X102414605Y-92075000D01*
X103568089Y-93228483D01*
X103822500Y-93116204D01*
X104076911Y-93228483D01*
X105230395Y-92075000D01*
X105589605Y-92075000D01*
X106743089Y-93228483D01*
X107035859Y-93099275D01*
X107039245Y-93090434D01*
X109139876Y-93090434D01*
X109336598Y-93565385D01*
X109770006Y-94033505D01*
X110349565Y-94300133D01*
X110603000Y-94181319D01*
X110603000Y-92837000D01*
X109259223Y-92837000D01*
X109139876Y-93090434D01*
X107039245Y-93090434D01*
X107304071Y-92399117D01*
X107302202Y-92329566D01*
X109139876Y-92329566D01*
X109259223Y-92583000D01*
X110603000Y-92583000D01*
X110603000Y-91238681D01*
X110349565Y-91119867D01*
X109770006Y-91386495D01*
X109336598Y-91854615D01*
X109139876Y-92329566D01*
X107302202Y-92329566D01*
X107283928Y-91649616D01*
X107035859Y-91050725D01*
X106743089Y-90921517D01*
X105589605Y-92075000D01*
X105230395Y-92075000D01*
X104076911Y-90921517D01*
X103822500Y-91033796D01*
X103568089Y-90921517D01*
X102414605Y-92075000D01*
X102055395Y-92075000D01*
X100901911Y-90921517D01*
X100647500Y-91033796D01*
X100393089Y-90921517D01*
X99239605Y-92075000D01*
X98880395Y-92075000D01*
X97726911Y-90921517D01*
X97434141Y-91050725D01*
X97165929Y-91750883D01*
X96827089Y-91750883D01*
X97016098Y-91562204D01*
X97219768Y-91071713D01*
X97220228Y-90544574D01*
X97469802Y-90295000D01*
X98407854Y-90295000D01*
X98035725Y-90449141D01*
X97906517Y-90741911D01*
X99060000Y-91895395D01*
X100213483Y-90741911D01*
X100084275Y-90449141D01*
X99681895Y-90295000D01*
X101582854Y-90295000D01*
X101210725Y-90449141D01*
X101081517Y-90741911D01*
X102235000Y-91895395D01*
X103388483Y-90741911D01*
X103259275Y-90449141D01*
X102856895Y-90295000D01*
X104757854Y-90295000D01*
X104385725Y-90449141D01*
X104256517Y-90741911D01*
X105410000Y-91895395D01*
X106563483Y-90741911D01*
X106434275Y-90449141D01*
X105734117Y-90180929D01*
X105125497Y-90197286D01*
X105312401Y-90072401D01*
X107662400Y-87722402D01*
X107827147Y-87475841D01*
X107847732Y-87372352D01*
X107884999Y-87185001D01*
X107884999Y-74259803D01*
X115032599Y-81407403D01*
X115279160Y-81572150D01*
X115570000Y-81630002D01*
X117132507Y-81630002D01*
X116876621Y-82012964D01*
X116775000Y-82523846D01*
X116775000Y-82576154D01*
X116818304Y-82793858D01*
X116707853Y-82959160D01*
X116650001Y-83249999D01*
X116650001Y-87676199D01*
X112225379Y-92100821D01*
X112123402Y-91854615D01*
X111689994Y-91386495D01*
X111110435Y-91119867D01*
X110857000Y-91238681D01*
X110857000Y-92583000D01*
X110877000Y-92583000D01*
X110877000Y-92837000D01*
X110857000Y-92837000D01*
X110857000Y-94181319D01*
X110944999Y-94222574D01*
X110944999Y-94355199D01*
X110810198Y-94490000D01*
X92953710Y-94490000D01*
X92975554Y-94425159D01*
X92075000Y-93524605D01*
X92060858Y-93538748D01*
X91881253Y-93359143D01*
X91895395Y-93345000D01*
X92254605Y-93345000D01*
X93155159Y-94245554D01*
X93411643Y-94159148D01*
X93621458Y-93585664D01*
X93614002Y-93408089D01*
X97906517Y-93408089D01*
X98035725Y-93700859D01*
X98735883Y-93969071D01*
X99485384Y-93948928D01*
X100084275Y-93700859D01*
X100213483Y-93408089D01*
X101081517Y-93408089D01*
X101210725Y-93700859D01*
X101910883Y-93969071D01*
X102660384Y-93948928D01*
X103259275Y-93700859D01*
X103388483Y-93408089D01*
X104256517Y-93408089D01*
X104385725Y-93700859D01*
X105085883Y-93969071D01*
X105835384Y-93948928D01*
X106434275Y-93700859D01*
X106563483Y-93408089D01*
X105410000Y-92254605D01*
X104256517Y-93408089D01*
X103388483Y-93408089D01*
X102235000Y-92254605D01*
X101081517Y-93408089D01*
X100213483Y-93408089D01*
X99060000Y-92254605D01*
X97906517Y-93408089D01*
X93614002Y-93408089D01*
X93595839Y-92975540D01*
X93411643Y-92530852D01*
X93155159Y-92444446D01*
X92254605Y-93345000D01*
X91895395Y-93345000D01*
X90994841Y-92444446D01*
X90738357Y-92530852D01*
X90680578Y-92688778D01*
X90256641Y-92264841D01*
X91174446Y-92264841D01*
X92075000Y-93165395D01*
X92975554Y-92264841D01*
X92889148Y-92008357D01*
X92315664Y-91798542D01*
X91705540Y-91824161D01*
X91260852Y-92008357D01*
X91174446Y-92264841D01*
X90256641Y-92264841D01*
X88390000Y-90398200D01*
X88390000Y-88402440D01*
X88625317Y-88358162D01*
X88841441Y-88219090D01*
X88986431Y-88006890D01*
X88993139Y-87973764D01*
X91910841Y-87973764D01*
X91980059Y-88215742D01*
X92502780Y-88402155D01*
X93057049Y-88374341D01*
X93439941Y-88215742D01*
X93509159Y-87973764D01*
X92710000Y-87174605D01*
X91910841Y-87973764D01*
X88993139Y-87973764D01*
X89037440Y-87755000D01*
X89037440Y-86787780D01*
X91302845Y-86787780D01*
X91330659Y-87342049D01*
X91489258Y-87724941D01*
X91731236Y-87794159D01*
X92530395Y-86995000D01*
X92889605Y-86995000D01*
X93688764Y-87794159D01*
X93930742Y-87724941D01*
X94117155Y-87202220D01*
X94095557Y-86771805D01*
X99811805Y-86771805D01*
X100044358Y-87333258D01*
X100535224Y-87854492D01*
X101188193Y-88148203D01*
X101473000Y-88031858D01*
X101473000Y-86487000D01*
X101727000Y-86487000D01*
X101727000Y-88031858D01*
X102011807Y-88148203D01*
X102664776Y-87854492D01*
X103155642Y-87333258D01*
X103388195Y-86771805D01*
X103271432Y-86487000D01*
X101727000Y-86487000D01*
X101473000Y-86487000D01*
X99928568Y-86487000D01*
X99811805Y-86771805D01*
X94095557Y-86771805D01*
X94089341Y-86647951D01*
X93930742Y-86265059D01*
X93688764Y-86195841D01*
X92889605Y-86995000D01*
X92530395Y-86995000D01*
X91731236Y-86195841D01*
X91489258Y-86265059D01*
X91302845Y-86787780D01*
X89037440Y-86787780D01*
X89037440Y-86235000D01*
X88996277Y-86016236D01*
X91910841Y-86016236D01*
X92710000Y-86815395D01*
X93509159Y-86016236D01*
X93489696Y-85948195D01*
X99811805Y-85948195D01*
X99928568Y-86233000D01*
X101473000Y-86233000D01*
X101473000Y-84688142D01*
X101727000Y-84688142D01*
X101727000Y-86233000D01*
X103271432Y-86233000D01*
X103388195Y-85948195D01*
X103155642Y-85386742D01*
X102664776Y-84865508D01*
X102011807Y-84571797D01*
X101727000Y-84688142D01*
X101473000Y-84688142D01*
X101188193Y-84571797D01*
X100535224Y-84865508D01*
X100044358Y-85386742D01*
X99811805Y-85948195D01*
X93489696Y-85948195D01*
X93439941Y-85774258D01*
X92917220Y-85587845D01*
X92362951Y-85615659D01*
X91980059Y-85774258D01*
X91910841Y-86016236D01*
X88996277Y-86016236D01*
X88993162Y-85999683D01*
X88854090Y-85783559D01*
X88641890Y-85638569D01*
X88390000Y-85587560D01*
X86870000Y-85587560D01*
X86634683Y-85631838D01*
X86560001Y-85679895D01*
X86560001Y-83574803D01*
X86897401Y-83237403D01*
X87062148Y-82990842D01*
X87120000Y-82700002D01*
X87120000Y-76570804D01*
X87587402Y-76103402D01*
X87752149Y-75856840D01*
X87810001Y-75566001D01*
X87810001Y-74364999D01*
X87932003Y-74364999D01*
X88140000Y-74323625D01*
X88140000Y-82110198D01*
X88197852Y-82401037D01*
X88362599Y-82647599D01*
X89183585Y-83468585D01*
X88988066Y-83663764D01*
X88775242Y-84176300D01*
X88774758Y-84731265D01*
X88986687Y-85244172D01*
X89378764Y-85636934D01*
X89891300Y-85849758D01*
X90446265Y-85850242D01*
X90959172Y-85638313D01*
X91351934Y-85246236D01*
X91564758Y-84733700D01*
X91565242Y-84178735D01*
X91353313Y-83665828D01*
X91206074Y-83518331D01*
X94592273Y-83518331D01*
X94818236Y-83987663D01*
X95206604Y-84334797D01*
X95551671Y-84477716D01*
X95758000Y-84354374D01*
X95758000Y-83312000D01*
X96012000Y-83312000D01*
X96012000Y-84354374D01*
X96218329Y-84477716D01*
X96563396Y-84334797D01*
X96951764Y-83987663D01*
X97177727Y-83518331D01*
X97055206Y-83312000D01*
X96012000Y-83312000D01*
X95758000Y-83312000D01*
X94714794Y-83312000D01*
X94592273Y-83518331D01*
X91206074Y-83518331D01*
X90961236Y-83273066D01*
X90903959Y-83249283D01*
X90872148Y-83089358D01*
X90713330Y-82851669D01*
X94592273Y-82851669D01*
X94714794Y-83058000D01*
X95758000Y-83058000D01*
X95758000Y-82015626D01*
X96012000Y-82015626D01*
X96012000Y-83058000D01*
X97055206Y-83058000D01*
X97177727Y-82851669D01*
X96951764Y-82382337D01*
X96563396Y-82035203D01*
X96218329Y-81892284D01*
X96012000Y-82015626D01*
X95758000Y-82015626D01*
X95551671Y-81892284D01*
X95206604Y-82035203D01*
X94818236Y-82382337D01*
X94592273Y-82851669D01*
X90713330Y-82851669D01*
X90707401Y-82842797D01*
X89660000Y-81795396D01*
X89660000Y-80058763D01*
X90002337Y-80441764D01*
X90471669Y-80667727D01*
X90678000Y-80545206D01*
X90678000Y-79502000D01*
X90932000Y-79502000D01*
X90932000Y-80545206D01*
X91138331Y-80667727D01*
X91607663Y-80441764D01*
X91954797Y-80053396D01*
X92097716Y-79708329D01*
X91974374Y-79502000D01*
X90932000Y-79502000D01*
X90678000Y-79502000D01*
X90658000Y-79502000D01*
X90658000Y-79248000D01*
X90678000Y-79248000D01*
X90678000Y-78204794D01*
X90932000Y-78204794D01*
X90932000Y-79248000D01*
X91974374Y-79248000D01*
X92097716Y-79041671D01*
X91954797Y-78696604D01*
X91607663Y-78308236D01*
X91138331Y-78082273D01*
X90932000Y-78204794D01*
X90678000Y-78204794D01*
X90471669Y-78082273D01*
X90002337Y-78308236D01*
X89660000Y-78691237D01*
X89660000Y-77246805D01*
X94731805Y-77246805D01*
X94964358Y-77808258D01*
X95455224Y-78329492D01*
X96108193Y-78623203D01*
X96393000Y-78506858D01*
X96393000Y-76962000D01*
X96647000Y-76962000D01*
X96647000Y-78506858D01*
X96931807Y-78623203D01*
X97584776Y-78329492D01*
X98075642Y-77808258D01*
X98308195Y-77246805D01*
X98191432Y-76962000D01*
X96647000Y-76962000D01*
X96393000Y-76962000D01*
X94848568Y-76962000D01*
X94731805Y-77246805D01*
X89660000Y-77246805D01*
X89660000Y-75898331D01*
X90782273Y-75898331D01*
X91008236Y-76367663D01*
X91396604Y-76714797D01*
X91741671Y-76857716D01*
X91948000Y-76734374D01*
X91948000Y-75692000D01*
X92202000Y-75692000D01*
X92202000Y-76734374D01*
X92408329Y-76857716D01*
X92753396Y-76714797D01*
X93079635Y-76423195D01*
X94731805Y-76423195D01*
X94848568Y-76708000D01*
X96393000Y-76708000D01*
X96393000Y-75163142D01*
X96647000Y-75163142D01*
X96647000Y-76708000D01*
X98191432Y-76708000D01*
X98308195Y-76423195D01*
X98075642Y-75861742D01*
X97584776Y-75340508D01*
X96931807Y-75046797D01*
X96647000Y-75163142D01*
X96393000Y-75163142D01*
X96108193Y-75046797D01*
X95455224Y-75340508D01*
X94964358Y-75861742D01*
X94731805Y-76423195D01*
X93079635Y-76423195D01*
X93141764Y-76367663D01*
X93367727Y-75898331D01*
X93245206Y-75692000D01*
X92202000Y-75692000D01*
X91948000Y-75692000D01*
X90904794Y-75692000D01*
X90782273Y-75898331D01*
X89660000Y-75898331D01*
X89660000Y-75231669D01*
X90782273Y-75231669D01*
X90904794Y-75438000D01*
X91948000Y-75438000D01*
X91948000Y-74395626D01*
X92202000Y-74395626D01*
X92202000Y-75438000D01*
X93245206Y-75438000D01*
X93367727Y-75231669D01*
X93141764Y-74762337D01*
X92753396Y-74415203D01*
X92408329Y-74272284D01*
X92202000Y-74395626D01*
X91948000Y-74395626D01*
X91741671Y-74272284D01*
X91396604Y-74415203D01*
X91008236Y-74762337D01*
X90782273Y-75231669D01*
X89660000Y-75231669D01*
X89660000Y-73872802D01*
X92714473Y-70818329D01*
X94592284Y-70818329D01*
X94735203Y-71163396D01*
X95082337Y-71551764D01*
X95551669Y-71777727D01*
X95758000Y-71655206D01*
X95758000Y-70612000D01*
X96012000Y-70612000D01*
X96012000Y-71655206D01*
X96218331Y-71777727D01*
X96687663Y-71551764D01*
X97034797Y-71163396D01*
X97177716Y-70818329D01*
X97054374Y-70612000D01*
X96012000Y-70612000D01*
X95758000Y-70612000D01*
X94715626Y-70612000D01*
X94592284Y-70818329D01*
X92714473Y-70818329D01*
X93381131Y-70151671D01*
X94592284Y-70151671D01*
X94715626Y-70358000D01*
X95758000Y-70358000D01*
X95758000Y-69314794D01*
X96012000Y-69314794D01*
X96012000Y-70358000D01*
X97054374Y-70358000D01*
X97177716Y-70151671D01*
X97034797Y-69806604D01*
X96687663Y-69418236D01*
X96218331Y-69192273D01*
X96012000Y-69314794D01*
X95758000Y-69314794D01*
X95551669Y-69192273D01*
X95082337Y-69418236D01*
X94735203Y-69806604D01*
X94592284Y-70151671D01*
X93381131Y-70151671D01*
X95397400Y-68135402D01*
X95562147Y-67888841D01*
X95577790Y-67810197D01*
X95619999Y-67598001D01*
X95619999Y-67292152D01*
X95758000Y-67210206D01*
X95758000Y-66167000D01*
X96012000Y-66167000D01*
X96012000Y-67210206D01*
X96218331Y-67332727D01*
X96687663Y-67106764D01*
X97034797Y-66718396D01*
X97177716Y-66373329D01*
X97054374Y-66167000D01*
X96012000Y-66167000D01*
X95758000Y-66167000D01*
X95738000Y-66167000D01*
X95738000Y-65913000D01*
X95758000Y-65913000D01*
X95758000Y-65893000D01*
X96012000Y-65893000D01*
X96012000Y-65913000D01*
X97054374Y-65913000D01*
X97136870Y-65774999D01*
X97720197Y-65774999D01*
X102170226Y-70225028D01*
G36*
X80137000Y-91313000D02*
X80157000Y-91313000D01*
X80157000Y-91567000D01*
X80137000Y-91567000D01*
X80137000Y-91587000D01*
X79883000Y-91587000D01*
X79883000Y-91567000D01*
X79863000Y-91567000D01*
X79863000Y-91313000D01*
X79883000Y-91313000D01*
X79883000Y-91293000D01*
X80137000Y-91293000D01*
X80137000Y-91313000D01*
X80137000Y-91313000D01*
G37*
X80137000Y-91313000D02*
X80157000Y-91313000D01*
X80157000Y-91567000D01*
X80137000Y-91567000D01*
X80137000Y-91587000D01*
X79883000Y-91587000D01*
X79883000Y-91567000D01*
X79863000Y-91567000D01*
X79863000Y-91313000D01*
X79883000Y-91313000D01*
X79883000Y-91293000D01*
X80137000Y-91293000D01*
X80137000Y-91313000D01*
M02*
