M48
;DRILL file {KiCad 4.0.5} date 06/13/17 03:14:46
;FORMAT={-:-/ absolute / metric / decimal}
FMAT,2
METRIC,TZ
T1C0.600
T2C0.700
T3C0.800
T4C1.000
T5C1.001
T6C1.200
T7C1.400
%
G90
G05
M71
T1
X92.71Y-59.055
X92.71Y-61.595
X93.98Y-60.325
X99.695Y-59.055
X100.965Y-60.325
X102.235Y-59.055
X106.68Y-66.675
X107.95Y-57.785
X107.95Y-60.325
X107.95Y-67.945
X109.22Y-59.055
X109.22Y-66.675
X115.57Y-57.785
X115.57Y-60.325
X116.84Y-59.055
T2
X80.01Y-59.69
X80.01Y-67.31
X80.01Y-71.755
X80.01Y-79.375
X83.185Y-79.375
X90.805Y-79.375
X92.075Y-67.945
X92.075Y-75.565
X94.615Y-53.975
X95.885Y-66.04
X95.885Y-70.485
X95.885Y-83.185
X95.885Y-90.805
X102.235Y-53.975
X103.505Y-66.04
X103.505Y-70.485
X106.045Y-53.975
X113.03Y-64.135
X113.03Y-71.755
X113.665Y-53.975
X118.11Y-64.135
X118.11Y-71.755
X118.11Y-74.93
X118.11Y-82.55
X121.92Y-53.34
X121.92Y-60.96
X122.555Y-74.93
X122.555Y-82.55
X125.095Y-60.325
X125.095Y-67.945
X128.905Y-66.675
X136.525Y-66.675
T3
X84.575Y-91.945
X87.63Y-86.995
X90.17Y-84.455
X92.075Y-93.345
X92.71Y-86.995
T4
X65.01Y-91.44
X70.485Y-72.47
X70.485Y-74.97
X70.485Y-77.47
X71.755Y-48.26
X74.535Y-54.61
X80.01Y-91.44
X85.725Y-59.93
X85.725Y-74.93
X86.755Y-48.26
X89.535Y-54.61
X100.965Y-46.355
X103.465Y-46.355
X105.965Y-46.355
X110.73Y-92.71
X112.395Y-48.26
X125.73Y-55.245
X125.73Y-92.71
X127.395Y-48.26
X140.73Y-55.245
T5
X99.06Y-92.075
X102.235Y-92.075
X105.41Y-92.075
T6
X66.675Y-46.99
X66.675Y-64.99
X96.52Y-76.835
X101.6Y-86.36
X114.52Y-76.835
X119.6Y-86.36
T7
X127.635Y-73.025
X127.635Y-85.725
X129.54Y-60.96
X130.81Y-90.17
X131.445Y-48.26
X133.985Y-71.12
X133.985Y-83.82
X142.24Y-60.96
X142.875Y-71.12
X142.875Y-83.82
X143.51Y-90.17
X144.145Y-48.26
T0
M30
