G04 #@! TF.FileFunction,Soldermask,Top*
%FSLAX46Y46*%
G04 Gerber Fmt 4.6, Leading zero omitted, Abs format (unit mm)*
G04 Created by KiCad (PCBNEW 4.0.5) date 06/13/17 03:11:54*
%MOMM*%
%LPD*%
G01*
G04 APERTURE LIST*
%ADD10C,0.100000*%
%ADD11R,2.400000X2.400000*%
%ADD12O,2.400000X2.400000*%
%ADD13C,1.800000*%
%ADD14O,1.800000X1.800000*%
%ADD15R,2.800000X2.800000*%
%ADD16O,2.800000X2.800000*%
%ADD17R,3.200000X3.200000*%
%ADD18O,3.200000X3.200000*%
%ADD19C,1.400000*%
%ADD20R,1.400000X1.400000*%
%ADD21C,2.200000*%
%ADD22C,2.899360*%
%ADD23C,1.920000*%
%ADD24R,1.920000X1.920000*%
G04 APERTURE END LIST*
D10*
D11*
X74535000Y-54610000D03*
D12*
X89535000Y-54610000D03*
D13*
X125095000Y-60325000D03*
D14*
X125095000Y-67945000D03*
D11*
X125730000Y-92710000D03*
D12*
X110730000Y-92710000D03*
D15*
X66675000Y-64990000D03*
D16*
X66675000Y-46990000D03*
D15*
X119600000Y-86360000D03*
D16*
X101600000Y-86360000D03*
D15*
X114520000Y-76835000D03*
D16*
X96520000Y-76835000D03*
D11*
X65010000Y-91440000D03*
D12*
X80010000Y-91440000D03*
D11*
X85725000Y-59930000D03*
D12*
X85725000Y-74930000D03*
D11*
X86755000Y-48260000D03*
D12*
X71755000Y-48260000D03*
D11*
X127395000Y-48260000D03*
D12*
X112395000Y-48260000D03*
D11*
X125730000Y-55245000D03*
D12*
X140730000Y-55245000D03*
D17*
X133985000Y-83820000D03*
D18*
X133985000Y-71120000D03*
D17*
X142875000Y-71120000D03*
D18*
X142875000Y-83820000D03*
D17*
X131445000Y-48260000D03*
D18*
X144145000Y-48260000D03*
D17*
X143510000Y-90170000D03*
D18*
X130810000Y-90170000D03*
D17*
X142240000Y-60960000D03*
D18*
X129540000Y-60960000D03*
D17*
X127635000Y-73025000D03*
D18*
X127635000Y-85725000D03*
D19*
X116840000Y-59055000D03*
X115570000Y-60325000D03*
D20*
X115570000Y-57785000D03*
D19*
X107950000Y-67945000D03*
X106680000Y-66675000D03*
D20*
X109220000Y-66675000D03*
D19*
X109220000Y-59055000D03*
X107950000Y-60325000D03*
D20*
X107950000Y-57785000D03*
D13*
X122555000Y-74930000D03*
D14*
X122555000Y-82550000D03*
D13*
X118110000Y-64135000D03*
D14*
X118110000Y-71755000D03*
D13*
X80010000Y-79375000D03*
D14*
X80010000Y-71755000D03*
D13*
X80010000Y-59690000D03*
D14*
X80010000Y-67310000D03*
D13*
X83185000Y-79375000D03*
D14*
X90805000Y-79375000D03*
D13*
X92075000Y-67945000D03*
D14*
X92075000Y-75565000D03*
D13*
X113030000Y-64135000D03*
D14*
X113030000Y-71755000D03*
D13*
X136525000Y-66675000D03*
D14*
X128905000Y-66675000D03*
D13*
X103505000Y-66040000D03*
D14*
X95885000Y-66040000D03*
D13*
X94615000Y-53975000D03*
D14*
X102235000Y-53975000D03*
D13*
X121920000Y-60960000D03*
D14*
X121920000Y-53340000D03*
D13*
X103505000Y-70485000D03*
D14*
X95885000Y-70485000D03*
D13*
X106045000Y-53975000D03*
D14*
X113665000Y-53975000D03*
D13*
X118110000Y-74930000D03*
D14*
X118110000Y-82550000D03*
D13*
X95885000Y-90805000D03*
D14*
X95885000Y-83185000D03*
D21*
X84575000Y-91945000D03*
X92075000Y-93345000D03*
D19*
X93980000Y-60325000D03*
X92710000Y-61595000D03*
D20*
X92710000Y-59055000D03*
D19*
X100965000Y-60325000D03*
X99695000Y-59055000D03*
D20*
X102235000Y-59055000D03*
D22*
X105410000Y-92075000D03*
X102235000Y-92075000D03*
X99060000Y-92075000D03*
D23*
X90170000Y-84455000D03*
X92710000Y-86995000D03*
D24*
X87630000Y-86995000D03*
D21*
X70485000Y-77470000D03*
X70485000Y-74970000D03*
X70485000Y-72470000D03*
X100965000Y-46355000D03*
X103465000Y-46355000D03*
X105965000Y-46355000D03*
M02*
